<svg viewBox="0 0 200 200" xmlns="http://www.w3.org/2000/svg">
    <path fill="#FFF9C4" d="M32.6,-52.9C41.7,-51.1,48.3,-41.4,51.6,-31.3C55,-21.1,55.1,-10.6,51,-2.3C47,5.9,38.8,11.7,34.1,19.6C29.4,27.4,28.2,37.1,23.1,46.9C18.1,56.7,9,66.4,-3.1,71.7C-15.2,77.1,-30.3,77.9,-44.4,73.4C-58.5,68.8,-71.6,58.8,-66.6,45.7C-61.7,32.6,-38.7,16.3,-30.4,4.8C-22,-6.6,-28.2,-13.3,-29.3,-19.6C-30.3,-26,-26.2,-32.1,-20.4,-35.8C-14.7,-39.6,-7.3,-41,2.2,-44.7C11.7,-48.5,23.4,-54.7,32.6,-52.9Z" transform="translate(100 100)" />
</svg>