<svg viewBox="0 0 200 200" xmlns="http://www.w3.org/2000/svg">
    <path fill="#80CBC4" d="M29,-42.5C37.6,-45.3,44.6,-37.5,42.2,-28.7C39.8,-19.9,28,-9.9,25.3,-1.5C22.6,6.8,29.1,13.7,29.4,18.8C29.7,24,23.7,27.4,17.8,36.2C11.9,44.9,5.9,59,-4.2,66.3C-14.4,73.6,-28.8,74.2,-39,67.9C-49.2,61.6,-55.2,48.5,-50.1,36C-45.1,23.5,-29.1,11.8,-32.9,-2.2C-36.8,-16.2,-60.6,-32.5,-65.3,-44.4C-70,-56.3,-55.6,-63.8,-41.5,-57.8C-27.5,-51.9,-13.7,-32.4,-1.8,-29.4C10.2,-26.3,20.4,-39.7,29,-42.5Z" transform="translate(100 100)" />
</svg>