<svg viewBox="0 0 200 200" xmlns="http://www.w3.org/2000/svg">
    <path fill="#E0F2F1" d="M12.2,-21.7C15.5,-19.2,17.5,-15.3,19.5,-11.4C21.5,-7.5,23.5,-3.8,24.2,0.4C24.8,4.6,24.3,9.1,24.5,16.9C24.8,24.6,25.8,35.6,21.9,42.2C17.9,48.9,8.9,51.3,-3.5,57.3C-15.9,63.3,-31.8,72.9,-37.3,67.2C-42.9,61.5,-38.2,40.4,-37.7,26.6C-37.2,12.9,-40.9,6.4,-47.2,-3.6C-53.5,-13.7,-62.3,-27.4,-61.7,-39.2C-61.1,-51,-51,-61,-39.2,-58.5C-27.3,-56,-13.6,-41.2,-4.6,-33.2C4.5,-25.3,8.9,-24.2,12.2,-21.7Z" transform="translate(100 100)" />
</svg>