<svg viewBox="0 0 200 200" xmlns="http://www.w3.org/2000/svg">
    <path fill="#B3E5FC" d="M36.8,-71.3C40.2,-61.7,30.5,-36.8,29,-22.4C27.5,-8,34.2,-4,33,-0.7C31.9,2.6,22.8,5.3,18.1,9C13.5,12.7,13.2,17.5,10.9,27.4C8.6,37.2,4.3,52.1,-5.1,60.9C-14.4,69.6,-28.8,72.3,-31.9,62.9C-34.9,53.5,-26.6,32,-23.4,19.5C-20.1,7,-22,3.5,-30.4,-4.9C-38.8,-13.3,-53.8,-26.5,-54,-33.6C-54.1,-40.8,-39.4,-41.8,-28,-46.8C-16.5,-51.9,-8.2,-61,4.2,-68.2C16.7,-75.5,33.3,-81,36.8,-71.3Z" transform="translate(100 100)" />
</svg>