<svg viewBox="0 0 200 200" xmlns="http://www.w3.org/2000/svg">
    <path fill="#FFECB3" d="M10.7,-17.8C16.6,-15.1,26,-17.8,36.8,-15.7C47.6,-13.6,59.9,-6.8,55.8,-2.4C51.7,2.1,31.3,4.2,26.4,16.6C21.6,29,32.3,51.8,30.5,53.6C28.7,55.3,14.4,36.1,4.8,27.8C-4.8,19.5,-9.6,22.3,-22.8,27.1C-36.1,31.9,-57.7,38.9,-65.1,34.7C-72.4,30.5,-65.6,15.3,-55.7,5.7C-45.8,-3.9,-33,-7.7,-29,-17.9C-25.1,-28,-30.2,-44.5,-26.8,-48.7C-23.5,-52.8,-11.7,-44.7,-4.7,-36.6C2.4,-28.5,4.8,-20.5,10.7,-17.8Z" transform="translate(100 100)" />
</svg>