<svg xmlns="http://www.w3.org/2000/svg" viewBox="3 3 16 16">
    <path id="ic_header_github"
          d="M 11.00000286102295 3.000000715255737 C 6.582000732421875 3.000000715255737 3.000000238418579 6.638087749481201 3.000000238418579 11.12526702880859 C 3.000000238418579 14.93262958526611 5.581334114074707 18.11841011047363 9.061334609985352 19 C 9.024001121520996 18.89030838012695 9.000001907348633 18.76301574707031 9.000001907348633 18.60524749755859 L 9.000001907348633 17.21650123596191 C 8.675334930419922 17.21650123596191 8.131335258483887 17.21650123596191 7.994668960571289 17.21650123596191 C 7.447334289550781 17.21650123596191 6.960667610168457 16.97748565673828 6.724667072296143 16.53330421447754 C 6.462666511535645 16.03969573974609 6.417332649230957 15.28472328186035 5.768001079559326 14.8229398727417 C 5.575333595275879 14.66923522949219 5.722000598907471 14.49386596679688 5.944000244140625 14.5175609588623 C 6.354000568389893 14.63538360595703 6.694000244140625 14.92112255096436 7.014002323150635 15.34498500823975 C 7.332668781280518 15.76953315734863 7.482666969299316 15.86567783355713 8.0780029296875 15.86567783355713 C 8.366668701171875 15.86567783355713 8.79866886138916 15.84875202178955 9.205333709716797 15.7837495803833 C 9.424001693725586 15.2197208404541 9.802003860473633 14.70038414001465 10.26400089263916 14.45527172088623 C 7.600002765655518 14.17698287963867 6.328667163848877 12.83089447021484 6.328667163848877 11.00338935852051 C 6.328667163848877 10.21659088134766 6.658666133880615 9.455524444580078 7.219334602355957 8.814306259155273 C 7.035336017608643 8.177829742431641 6.804000377655029 6.879814624786377 7.290000915527344 6.385528087615967 C 8.488668441772461 6.385528087615967 9.213335990905762 7.175033092498779 9.387334823608398 7.388321399688721 C 9.984670639038086 7.180449485778809 10.64066886901855 7.062633991241455 11.33000373840332 7.062633991241455 C 12.02066898345947 7.062633991241455 12.67933177947998 7.180449485778809 13.27800369262695 7.389676570892334 C 13.45000076293945 7.177741527557373 14.17533302307129 6.385528087615967 15.37666606903076 6.385528087615967 C 15.86466503143311 6.880492210388184 15.63066673278809 8.183920860290527 15.44466590881348 8.819048881530762 C 16.00200080871582 9.458911895751953 16.32999420166016 10.21794700622559 16.32999420166016 11.00339126586914 C 16.32999420166016 12.82954120635986 15.06066703796387 14.17494964599609 12.40066909790039 14.45459747314453 C 13.13266849517822 14.84257507324219 13.66666507720947 15.93271923065186 13.66666507720947 16.75403785705566 L 13.66666507720947 18.60524559020996 C 13.66666507720947 18.67566680908203 13.65133285522461 18.72644805908203 13.64333343505859 18.78671073913574 C 16.76066207885742 17.67693519592285 19 14.6705904006958 19 11.12526702880859 C 19 6.638087749481201 15.41800308227539 3.000000715255737 11.00000286102295 3.000000715255737 Z">
    </path>
</svg>