<svg xmlns="http://www.w3.org/2000/svg" width="12" height="12" viewBox="0 0 12 12"><defs><style>.a{fill:#fff;}</style></defs><path class="a" d="M26.571,13a2.579,2.579,0,0,1,2.571,2.571v.857h1.714v-.857a2.571,2.571,0,1,1,2.571,2.571h-.857v1.714h.857a2.571,2.571,0,1,1-2.571,2.571v-.857H29.143v.857a2.571,2.571,0,1,1-2.571-2.571h.857V18.143h-.857a2.571,2.571,0,1,1,0-5.143Zm0,1.714a.857.857,0,1,0,0,1.714h.857v-.857A.86.86,0,0,0,26.571,14.714Zm6.857,0a.86.86,0,0,0-.857.857v.857h.857a.857.857,0,1,0,0-1.714Zm-4.286,3.429v1.714h1.714V18.143Zm-2.571,3.429a.857.857,0,1,0,.857.857v-.857Zm6,0v.857a.857.857,0,1,0,.857-.857Z" transform="translate(-24 -13)"/></svg>