<svg xmlns="http://www.w3.org/2000/svg" width="150.515" height="37.617" viewBox="0 0 150.515 37.617"><defs><style>.a,.d{fill:#fff;}.a{font-size:24px;font-family:Lato-Regular, Lato;}.b{font-family:Lato-Bold, Lato;font-weight:700;}.c{fill:#4fb6ac;}.e{fill:#1f1e1c;}.f{fill:#14c397;}</style></defs><g transform="translate(-96.356 -1630.842)"><text class="a" transform="translate(188.872 1659.005)"><tspan x="-57.834" y="0">Domino</tspan><tspan class="b" y="0">Kit</tspan></text><g transform="translate(110.493 1627.009) rotate(45)"><g transform="translate(12.777 9.604)"><g transform="translate(0 0)"><path class="c" d="M4,0H9.61a0,0,0,0,1,0,0V9.61a0,0,0,0,1,0,0H4a4,4,0,0,1-4-4V4A4,4,0,0,1,4,0Z"/><g transform="translate(4.004 4.004)"><circle class="d" cx="0.801" cy="0.801" r="0.801"/></g><g transform="translate(9.605 0.005)"><rect class="d" width="9.61" height="9.61"/><g transform="translate(1.602 1.602)"><circle class="e" cx="0.801" cy="0.801" r="0.801" transform="translate(0.002 4.803)"/><circle class="e" cx="0.801" cy="0.801" r="0.801"/><circle class="e" cx="0.801" cy="0.801" r="0.801" transform="translate(2.403 2.403)"/><circle class="e" cx="0.801" cy="0.801" r="0.801" transform="translate(4.805 4.805)"/><circle class="e" cx="0.801" cy="0.801" r="0.801" transform="translate(4.803 0.002)"/></g></g></g></g><g transform="translate(12.764 0.001)"><g transform="translate(0 0)"><g transform="translate(0.005 9.605)"><rect class="f" width="9.61" height="9.61"/><g transform="translate(4.004 4.004)"><circle class="d" cx="0.801" cy="0.801" r="0.801"/></g></g><rect class="d" width="9.61" height="9.61"/><g transform="translate(1.602 1.602)"><circle class="e" cx="0.801" cy="0.801" r="0.801" transform="translate(4.805 4.805)"/><circle class="e" cx="0.801" cy="0.801" r="0.801" transform="translate(0.002 4.803)"/><circle class="e" cx="0.801" cy="0.801" r="0.801" transform="translate(4.803 0.002)"/><circle class="e" cx="0.801" cy="0.801" r="0.801"/></g></g></g><path class="d" d="M7.288,0l7.288,7.188H0Z" transform="translate(0.002 19.995) rotate(-90)"/><path class="d" d="M7.3,0l7.3,7.2H0Z" transform="translate(26.62 31.999) rotate(180)"/></g></g></svg>