<svg xmlns="http://www.w3.org/2000/svg" width="24" height="24" viewBox="0 0 24 24"><defs><style>.a{fill:rgba(255,255,255,0.5);}</style></defs><path class="a" d="M15,3a12.2,12.2,0,0,0-2.908,24A1.8,1.8,0,0,1,12,26.408V24.325H10.492A2.08,2.08,0,0,1,8.587,23.3c-.393-.74-.461-1.873-1.435-2.566-.289-.231-.069-.494.264-.458a3.15,3.15,0,0,1,1.605,1.241,1.535,1.535,0,0,0,1.6.781,11.292,11.292,0,0,0,1.691-.123A3.811,3.811,0,0,1,13.9,20.183c-4-.417-5.9-2.437-5.9-5.178a5.022,5.022,0,0,1,1.336-3.284c-.276-.955-.623-2.9.106-3.643a4.157,4.157,0,0,1,3.146,1.5,8.941,8.941,0,0,1,5.836,0,4.154,4.154,0,0,1,3.148-1.506c.732.742.381,2.7.1,3.65a5.021,5.021,0,0,1,1.328,3.277c0,2.739-1.9,4.757-5.894,5.177A4.291,4.291,0,0,1,19,23.631v2.777a1.814,1.814,0,0,1-.035.272A12.209,12.209,0,0,0,15,3Z" transform="translate(-3 -3)"/></svg>