<svg xmlns="http://www.w3.org/2000/svg" width="44" height="40" viewBox="0 0 44 40"><defs><style>.a{fill:#14c397;fill-rule:evenodd;}</style></defs><path class="a" d="M27.984,962.4a1.751,1.751,0,0,0-.344.063l-10.453,3.957a1,1,0,0,0-.687,1.126V978.7l-9.938,4.739A1.078,1.078,0,0,0,6,984.5v11.792a1.02,1.02,0,0,0,.562.907l10.266,5a1.279,1.279,0,0,0,1.188.078L28,997.42l10,4.88a1.363,1.363,0,0,0,1.094-.047L49.437,997.2a1.025,1.025,0,0,0,.563-.907V984.485a1.049,1.049,0,0,0-.656-1.079L39.5,978.714v-11.2a1.255,1.255,0,0,0-.75-1.11l-10.406-3.941a.732.732,0,0,0-.359-.063ZM28,964.467l7.891,3L28,971.067l-7.906-3.6Zm-9.5,4.457L27,972.8v10.056l-8.5-4.145Zm-1.016,11.511,8.031,3.926L17.5,988.036l-8.141-3.722Zm21.016,0,8.125,3.879L38.5,988.036l-8.016-3.675ZM8,985.893l8.5,3.879v10.056L8,995.668Zm21,0,8.5,3.879v10.056L29,995.684Z" transform="translate(-6 -962.4)"/></svg>