<svg xmlns="http://www.w3.org/2000/svg" width="18" height="24" viewBox="0 0 18 24">
    <defs>
        <style>.a{fill:#14c397;}</style>
    </defs>
    <path class="a"
          d="M9138.344,888.761h0l2.206,3.994a.528.528,0,0,0,.426.244.6.6,0,0,0,.207-.058l2.992-1.515a.506.506,0,0,0,.246-.3.578.578,0,0,0-.031-.392l-2.087-3.753h3.147a.466.466,0,0,0,.451-.3c.2-.192.031-.447-.025-.52l-10.01-9.981a.529.529,0,0,0-.549-.12.522.522,0,0,0-.3.454v13.857a.573.573,0,0,0,.266.454.517.517,0,0,0,.219.052.469.469,0,0,0,.3-.11l2.538-2Zm-5.643-9.912a.5.5,0,0,0-.346.138l-2.118,2.121a.52.52,0,0,0,0,.692.505.505,0,0,0,.369.151.567.567,0,0,0,.362-.151l2.115-2.117a.557.557,0,0,0-.031-.7A.5.5,0,0,0,9132.7,878.849Zm6.825-2.827a.513.513,0,1,0,0,1.026h3a.513.513,0,0,0,0-1.026Zm-11.018,0a.507.507,0,0,0-.511.513.513.513,0,0,0,.511.513h3a.513.513,0,0,0,0-1.026Zm11.969-4.951a.471.471,0,0,0-.344.138l-2.12,2.121a.466.466,0,0,0-.139.344.48.48,0,0,0,.139.348.5.5,0,0,0,.363.151.537.537,0,0,0,.358-.151l2.119-2.114a.553.553,0,0,0-.029-.7A.49.49,0,0,0,9140.478,871.072Zm-9.891,0a.5.5,0,0,0-.35.138.529.529,0,0,0,0,.7l2.118,2.114a.5.5,0,0,0,.361.151.639.639,0,0,0,.367-.151.546.546,0,0,0-.031-.692l-2.118-2.121A.494.494,0,0,0,9130.587,871.072ZM9135.5,869a.509.509,0,0,0-.516.513v3a.509.509,0,0,0,.516.513.5.5,0,0,0,.52-.513v-3A.517.517,0,0,0,9135.5,869Z"
          transform="translate(-9127.998 -868.999)"/>
</svg>
