<svg xmlns="http://www.w3.org/2000/svg" width="60" height="40" viewBox="0 0 60 40"><defs><style>.a{fill:#14c397;}</style></defs><path class="a" d="M9024.7,192.9a1.4,1.4,0,0,1-1.16-2.218l7.125-9.824a1.43,1.43,0,0,1,2.321,0l4.121,5.7a.489.489,0,0,0,.8,0l.961-1.307a1.431,1.431,0,0,1,2.322,0l3.961,5.427A1.4,1.4,0,0,1,9044,192.9Zm-9.274-.285.16-.869a8.026,8.026,0,0,1,1.028-.4,8.7,8.7,0,0,1,1.028-.263l-.554-3.638h-5.109l-2.2,3.638a5.07,5.07,0,0,1,.971.239,4.327,4.327,0,0,1,.88.423l-.164.869h-5.757l.162-.869a6.584,6.584,0,0,1,.879-.4,5.943,5.943,0,0,1,.925-.263l9.154-14.756h1.688l2.61,14.756a4.51,4.51,0,0,1,.866.274,4.325,4.325,0,0,1,.729.389l-.186.869Zm-.093-10.98-2.565,4.324h4.138l-.648-4.369v-1.967h-.046Zm21.055-2.8c0-1.386,5.045-1.386,5.045,0a2.523,2.523,0,0,1-5.045,0Zm12.209-7.308a2.6,2.6,0,0,0,2.6-.667,2.541,2.541,0,0,0-.069-3.62,2.6,2.6,0,0,0-3.656.07,2.525,2.525,0,0,0-.573,2.6l-6.27,7.115,4.109-14.751,8.176-1.48,4.7,3.907-.86,8.093-15.1,5.208Zm4.887-12.406,4.491-6.223,1.33.941-3.686,5.108,4.19,3.334,4.839-3.861,1.065,1.228-5.989,4.837Z" transform="translate(-9005.717 -152.9)"/></svg>