<svg xmlns="http://www.w3.org/2000/svg" width="32" height="26.667" viewBox="0 0 32 26.667"><defs><style>.a{fill:#fdd55c;}</style></defs><path class="a" d="M11.9-10.175A16.953,16.953,0,0,0,7.844-8.363,15.23,15.23,0,0,0,4.568-5.672a12.782,12.782,0,0,0-2.208,3.3,8.607,8.607,0,0,0-.807,3.623A4.177,4.177,0,0,0,1.98,3.184q.427.83,1,.83A1.9,1.9,0,0,0,4,3.762q.4-.252.831-.553A6.126,6.126,0,0,1,5.8,2.655,3.5,3.5,0,0,1,7.25,2.4a3.835,3.835,0,0,1,1.78.428A4.812,4.812,0,0,1,10.5,4.014a5.794,5.794,0,0,1,1.021,1.811,6.643,6.643,0,0,1,.38,2.264,5.588,5.588,0,0,1-.522,2.415,6.089,6.089,0,0,1-1.4,1.912A6.837,6.837,0,0,1,7.939,13.7a6.493,6.493,0,0,1-2.493.478,6.724,6.724,0,0,1-3.276-.83A8.724,8.724,0,0,1-.489,11.083a11.349,11.349,0,0,1-1.8-3.321,12.1,12.1,0,0,1-.665-4.05A16.009,16.009,0,0,1-1.747-2.577,16.656,16.656,0,0,1,1.482-7.584,15.65,15.65,0,0,1,6.206-11a15.633,15.633,0,0,1,5.7-1.484Zm17.139,0a17.658,17.658,0,0,0-4.036,1.811,14.5,14.5,0,0,0-3.276,2.692,13.1,13.1,0,0,0-2.184,3.3,8.607,8.607,0,0,0-.807,3.623,4.382,4.382,0,0,0,.4,1.937q.4.83,1.021.83a1.9,1.9,0,0,0,1.021-.252q.4-.252.807-.553a5.247,5.247,0,0,1,.95-.553A3.5,3.5,0,0,1,24.39,2.4a3.835,3.835,0,0,1,1.78.428,4.812,4.812,0,0,1,1.472,1.182,5.794,5.794,0,0,1,1.021,1.811,6.643,6.643,0,0,1,.38,2.264,5.776,5.776,0,0,1-1.875,4.327A6.76,6.76,0,0,1,25.1,13.7a6.872,6.872,0,0,1-5.792-.352,8.724,8.724,0,0,1-2.659-2.264,11.349,11.349,0,0,1-1.8-3.321,12.1,12.1,0,0,1-.665-4.05,16.009,16.009,0,0,1,1.211-6.289,16.42,16.42,0,0,1,3.252-5.006A16.051,16.051,0,0,1,23.369-11a15.431,15.431,0,0,1,5.674-1.484Z" transform="translate(2.958 12.489)"/></svg>