<svg xmlns="http://www.w3.org/2000/svg" width="40" height="40" viewBox="0 0 40 40"><defs><style>.a{fill:#14c397;}</style></defs><path class="a" d="M6.541,4A2.556,2.556,0,0,0,4,6.541V41.459A2.556,2.556,0,0,0,6.541,44H41.459A2.554,2.554,0,0,0,44,41.459V6.541A2.554,2.554,0,0,0,41.459,4Zm0,1.9H41.459a.634.634,0,0,1,.636.636V41.459a.634.634,0,0,1-.636.636H6.541a.634.634,0,0,1-.636-.636V6.541A.634.634,0,0,1,6.541,5.9ZM22.1,22.1V34.071c0,1.838-.7,2.31-1.9,2.31a3.128,3.128,0,0,1-2.723-1.812l-2.991,1.812a6.686,6.686,0,0,0,5.938,3.81c3.259,0,5.491-1.734,5.491-5.539V22.1Zm11.86,0c-3.244,0-5.324,2.076-5.324,4.8,0,2.958,1.745,4.356,4.368,5.472l.908.391c1.656.725,2.474,1.168,2.474,2.414,0,1.038-.789,1.789-2.3,1.789-1.793,0-2.641-1.217-3.419-2.489l-2.857,1.9a6.634,6.634,0,0,0,6.358,3.81c3.452,0,6.023-1.793,6.023-5.063,0-3.036-1.741-4.386-4.833-5.711l-.908-.387c-1.559-.677-2.236-1.116-2.236-2.206a1.584,1.584,0,0,1,1.741-1.559,2.468,2.468,0,0,1,2.336,1.559l2.831-1.815A5.364,5.364,0,0,0,33.955,22.1Z" transform="translate(-4 -4)"/></svg>