<svg xmlns="http://www.w3.org/2000/svg" width="29.19" height="24.325" viewBox="0 0 29.19 24.325"><defs><style>.a{fill:#e6ecf7;}</style></defs><path class="a" d="M10.6-10.378A15.465,15.465,0,0,0,6.9-8.726,13.892,13.892,0,0,0,3.907-6.27,11.659,11.659,0,0,0,1.893-3.264,7.851,7.851,0,0,0,1.157.04a3.81,3.81,0,0,0,.39,1.767q.39.757.909.757a1.732,1.732,0,0,0,.931-.229q.368-.229.758-.5a5.588,5.588,0,0,1,.888-.5A3.191,3.191,0,0,1,6.354,1.1a3.5,3.5,0,0,1,1.624.39A4.389,4.389,0,0,1,9.32,2.565a5.285,5.285,0,0,1,.931,1.652A6.06,6.06,0,0,1,10.6,6.282a5.1,5.1,0,0,1-.476,2.2,5.555,5.555,0,0,1-1.278,1.744A6.236,6.236,0,0,1,6.982,11.4a5.923,5.923,0,0,1-2.274.436,6.134,6.134,0,0,1-2.988-.757A7.958,7.958,0,0,1-.705,9.013,10.352,10.352,0,0,1-2.351,5.984a11.041,11.041,0,0,1-.606-3.695,14.6,14.6,0,0,1,1.1-5.737A15.193,15.193,0,0,1,1.092-8.014,14.276,14.276,0,0,1,5.4-11.135a14.26,14.26,0,0,1,5.2-1.354Zm15.634,0a16.107,16.107,0,0,0-3.681,1.652A13.225,13.225,0,0,0,19.563-6.27a11.947,11.947,0,0,0-1.992,3.006,7.851,7.851,0,0,0-.736,3.3A4,4,0,0,0,17.2,1.807q.368.757.931.757a1.732,1.732,0,0,0,.931-.229q.368-.229.736-.5a4.786,4.786,0,0,1,.866-.5A3.191,3.191,0,0,1,21.988,1.1a3.5,3.5,0,0,1,1.624.39,4.389,4.389,0,0,1,1.343,1.079,5.285,5.285,0,0,1,.931,1.652,6.06,6.06,0,0,1,.346,2.065,5.268,5.268,0,0,1-1.711,3.947,6.167,6.167,0,0,1-1.884,1.17,6.268,6.268,0,0,1-5.284-.321,7.958,7.958,0,0,1-2.425-2.065,10.352,10.352,0,0,1-1.646-3.029,11.041,11.041,0,0,1-.606-3.695,14.6,14.6,0,0,1,1.1-5.737,14.978,14.978,0,0,1,2.967-4.567,14.642,14.642,0,0,1,4.309-3.121,14.076,14.076,0,0,1,5.175-1.354Z" transform="translate(2.958 12.489)"/></svg>