<svg xmlns="http://www.w3.org/2000/svg" width="21" height="24" viewBox="0 0 21 24"><defs><style>.a{fill:#24292e;}</style></defs><path class="a" d="M13.566,32.078V29.351H11.584a2.736,2.736,0,0,1-2.5-1.342c-.517-.969-.606-2.452-1.886-3.359-.38-.3-.091-.646.347-.6a4.138,4.138,0,0,1,2.11,1.625,2.019,2.019,0,0,0,2.1,1.023,14.9,14.9,0,0,0,2.223-.161,4.994,4.994,0,0,1,2.087-2.609c-5.252-.547-7.759-3.19-7.759-6.78a6.563,6.563,0,0,1,1.756-4.3c-.363-1.25-.819-3.8.139-4.77a5.47,5.47,0,0,1,4.135,1.97,11.795,11.795,0,0,1,7.671,0,5.467,5.467,0,0,1,4.138-1.972c.962.972.5,3.532.134,4.78a6.561,6.561,0,0,1,1.745,4.29c0,3.587-2.5,6.229-7.747,6.778a5.613,5.613,0,0,1,2.5,4.516v3.636Z" transform="translate(-7.018 -8.078)"/></svg>