<svg xmlns="http://www.w3.org/2000/svg" xmlns:xlink="http://www.w3.org/1999/xlink" width="432" height="365.001"
     viewBox="0 0 432 365.001">
    <defs>
        <style>
            .a{fill:#e6ecf7;}.b{fill:#acb7d0;}.c{fill:#e14b5a;}.d{fill:#fdd55c;}.e{fill:#14c397;}.f{opacity:0.1;}.g{filter:url(#a);}
        </style>
        <filter id="a" x="0" y="0" width="432" height="365.001" filterUnits="userSpaceOnUse">
            <feOffset dy="20" input="SourceAlpha"/>
            <feGaussianBlur stdDeviation="20" result="b"/>
            <feFlood flood-color="#acb7d0" flood-opacity="0.239"/>
            <feComposite operator="in" in2="b"/>
            <feComposite in="SourceGraphic"/>
        </filter>
    </defs>
    <g transform="translate(-18.951 -25.253)">
        <g class="g" transform="matrix(1, 0, 0, 1, 18.95, 25.25)">
            <rect class="a" width="312" height="245.001" transform="translate(60 40)"/>
        </g>
        <path class="b" d="M490.676,262.5h-76.97a.935.935,0,0,1,0-1.87h76.97a.935.935,0,0,1,0,1.87Z"
              transform="translate(-259.275 -163.762)"/>
        <path class="b" d="M631.578,287.262H510.518a.935.935,0,0,1,0-1.87h121.06a.935.935,0,0,1,0,1.87Z"
              transform="translate(-315.92 -178.243)"/>
        <path class="b" d="M491.577,312.028h-76.97a.935.935,0,0,1,0-1.87h76.97a.935.935,0,0,1,0,1.87Z"
              transform="translate(-259.802 -192.725)"/>
        <path class="b" d="M693.755,312.478h-76.97a.935.935,0,0,1,0-1.87h76.97a.935.935,0,0,1,0,1.87Z"
              transform="translate(-378.097 -192.988)"/>
        <path class="b" d="M492.027,336.793h-76.97a.935.935,0,0,1,0-1.87h76.97a.935.935,0,0,1,0,1.87Z"
              transform="translate(-260.065 -207.206)"/>
        <path class="b" d="M492.478,361.559h-76.97a.935.935,0,0,1,0-1.87h76.97a.935.935,0,0,1,0,1.87Z"
              transform="translate(-260.328 -221.688)"/>
        <path class="b" d="M654.14,262.946H632.095a.935.935,0,0,1,0-1.87H654.14a.935.935,0,0,1,0,1.87Z"
              transform="translate(-387.055 -164.025)"/>
        <path class="b" d="M654.14,336.793H632.095a.935.935,0,0,1,0-1.87H654.14a.935.935,0,0,1,0,1.87Z"
              transform="translate(-387.055 -207.206)"/>
        <path class="b" d="M654.14,361.109H632.095a.935.935,0,0,1,0-1.87H654.14a.935.935,0,0,1,0,1.87Z"
              transform="translate(-387.055 -221.425)"/>
        <path class="b" d="M743.3,361.109H721.251a.935.935,0,0,1,0-1.87H743.3a.935.935,0,0,1,0,1.87Z"
              transform="translate(-439.221 -221.425)"/>
        <path class="b" d="M435.3,287.262H413.256a.935.935,0,0,1,0-1.87H435.3a.935.935,0,0,1,0,1.87Z"
              transform="translate(-259.011 -178.243)"/>
        <path class="b" d="M490.9,627.228h-76.97a.935.935,0,0,1,0-1.87H490.9a.935.935,0,0,1,0,1.87Z"
              transform="translate(-259.406 -377.036)"/>
        <path class="b" d="M490,676.759h-76.97a.935.935,0,0,1,0-1.87H490a.935.935,0,0,1,0,1.87Z"
              transform="translate(-258.879 -405.999)"/>
        <path class="b" d="M490.451,701.525h-76.97a.935.935,0,0,1,0-1.87h76.97a.935.935,0,0,1,0,1.87Z"
              transform="translate(-259.143 -420.481)"/>
        <path class="b" d="M647.16,677.209H625.115a.935.935,0,0,1,0-1.87H647.16a.935.935,0,0,1,0,1.87Z"
              transform="translate(-382.971 -406.263)"/>
        <path class="b" d="M647.16,701.525H625.115a.935.935,0,0,1,0-1.87H647.16a.935.935,0,0,1,0,1.87Z"
              transform="translate(-382.971 -420.481)"/>
        <path class="b" d="M736.317,677.209H714.272a.935.935,0,0,1,0-1.87h22.045a.935.935,0,0,1,0,1.87Z"
              transform="translate(-435.138 -406.263)"/>
        <path class="b" d="M631.8,651.993H510.743a.935.935,0,0,1,0-1.87H631.8a.935.935,0,0,1,0,1.87Z"
              transform="translate(-316.051 -391.518)"/>
        <path class="b" d="M435.526,651.993H413.481a.935.935,0,0,1,0-1.87h22.045a.935.935,0,0,1,0,1.87Z"
              transform="translate(-259.143 -391.518)"/>
        <path class="b" d="M631.8,726.741H510.743a.935.935,0,0,1,0-1.87H631.8a.935.935,0,0,1,0,1.87Z"
              transform="translate(-316.051 -435.226)"/>
        <path class="b" d="M435.526,726.741H413.481a.935.935,0,0,1,0-1.87h22.045a.935.935,0,0,1,0,1.87Z"
              transform="translate(-259.143 -435.226)"/>
        <ellipse class="c" cx="3.734" cy="3.737" rx="3.734" ry="3.737" transform="translate(83.515 67.744)"/>
        <ellipse class="d" cx="3.734" cy="3.737" rx="3.734" ry="3.737" transform="translate(93.473 67.744)"/>
        <ellipse class="e" cx="3.734" cy="3.737" rx="3.734" ry="3.737" transform="translate(103.43 67.744)"/>
        <rect class="f" width="312" height="1.246" transform="translate(78.951 77.711)"/>
        <path class="e"
              d="M47.323,55.192V60.67a1.878,1.878,0,0,1-1.905,1.905H44.227a.875.875,0,0,0-.714.238c-.238,0-.238.238-.476.476S42.8,64,42.56,64.718a8.929,8.929,0,0,0-.238,2.62v5a21.789,21.789,0,0,1-.238,4.048,11.789,11.789,0,0,1-.953,3.1A4.271,4.271,0,0,1,39.94,81.15a3.838,3.838,0,0,1,.953,1.667,18.459,18.459,0,0,1,1.191,7.144v7.382a9.813,9.813,0,0,0,.238,2.858,9.366,9.366,0,0,1,.476,1.429c.238.238.238.476.476.476s.476.238.953.238h1.191a1.878,1.878,0,0,1,1.905,1.905v5.477a1.878,1.878,0,0,1-1.905,1.905H43.989a7.883,7.883,0,0,1-7.144-3.81c-1.429-2.143-2.143-5.477-2.143-10.24V90.2c0-2.143-.238-3.1-.714-3.572a1.4,1.4,0,0,0-1.191-.476H31.605A1.878,1.878,0,0,1,29.7,84.246V78.768a1.878,1.878,0,0,1,1.905-1.905H32.8c.476,0,.714,0,.953-.238l.476-.476c0-.238.238-.476.476-1.191,0-.714.238-1.429.238-2.381V67.338a39.513,39.513,0,0,1,.476-5.715,11.531,11.531,0,0,1,1.667-4.287,7.133,7.133,0,0,1,3.1-2.858,8.155,8.155,0,0,1,4.287-.953h1.429C46.608,53.287,47.323,54,47.323,55.192Z"
              transform="translate(156.612 112.008)"/>
        <path class="e"
              d="M123.8,78.081v5.477a1.878,1.878,0,0,1-1.905,1.905H120.7c-.476,0-.714,0-.953.238-.238,0-.238.238-.476.476,0,.238-.238.476-.476,1.191,0,.714-.238,1.429-.238,2.381v7.621a33.443,33.443,0,0,1-.476,5.477,11.531,11.531,0,0,1-1.667,4.287,7.132,7.132,0,0,1-3.1,2.858,8.155,8.155,0,0,1-4.287.953H107.6a1.878,1.878,0,0,1-1.905-1.905v-5.477a1.878,1.878,0,0,1,1.905-1.905h1.191a1.432,1.432,0,0,0,.953-.238c.238,0,.238-.238.476-.476a2.013,2.013,0,0,0,.476-1.429,8.93,8.93,0,0,0,.238-2.62V89.274a21.788,21.788,0,0,1,.238-4.048c.238-1.191.476-2.143.714-3.1a4.271,4.271,0,0,1,1.191-1.667,3.838,3.838,0,0,1-.953-1.667,18.46,18.46,0,0,1-1.191-7.144V66.889a9.814,9.814,0,0,0-.238-2.858,9.364,9.364,0,0,1-.476-1.429c-.238-.238-.238-.476-.476-.476s-.476-.238-.953-.238H107.6a1.878,1.878,0,0,1-1.905-1.905V54.505A1.878,1.878,0,0,1,107.6,52.6h1.429c3.1,0,5.715,1.191,7.144,3.81,1.429,2.143,2.143,5.477,2.143,10.24v5c0,2.143.238,3.1.714,3.572a1.4,1.4,0,0,0,1.191.476h1.191C122.844,76.414,123.8,77.129,123.8,78.081Z"
              transform="translate(158.963 111.98)"/>
        <path class="d"
              d="M62.816,89.425a5.061,5.061,0,0,1,0,4.287,6.231,6.231,0,0,1-2.858,2.858,6.954,6.954,0,0,1-2.143.476,6.954,6.954,0,0,1-2.143-.476,6.231,6.231,0,0,1-2.858-2.858,5.061,5.061,0,0,1,0-4.287,6.23,6.23,0,0,1,2.858-2.858,6.609,6.609,0,0,1,4.287,0,6.231,6.231,0,0,1,2.858,2.858Zm19.29,0a5.06,5.06,0,0,1,0,4.287,6.231,6.231,0,0,1-2.858,2.858,6.954,6.954,0,0,1-2.143.476,6.954,6.954,0,0,1-2.143-.476A6.231,6.231,0,0,1,72.1,93.712a5.06,5.06,0,0,1,0-4.287,6.231,6.231,0,0,1,2.858-2.858,6.609,6.609,0,0,1,4.287,0,4.272,4.272,0,0,1,1.667,1.191A2.756,2.756,0,0,1,82.106,89.425Zm19.528,0a5.061,5.061,0,0,1,0,4.287,6.231,6.231,0,0,1-2.858,2.858,5.061,5.061,0,0,1-4.287,0,6.231,6.231,0,0,1-2.858-2.858,5.06,5.06,0,0,1,0-4.287,6.231,6.231,0,0,1,2.858-2.858,6.609,6.609,0,0,1,4.287,0,6.231,6.231,0,0,1,2.858,2.858Z"
              transform="translate(157.312 113.02)"/>
    </g>
</svg>