<svg xmlns="http://www.w3.org/2000/svg" width="524" height="334" viewBox="0 0 524 334"><defs><style>.a,.f{fill:#acb7d0;}.a,.i{opacity:0.1;}.b{fill:#e6ecf7;}.c,.d,.e{fill:#14c397;}.c,.k{opacity:0.5;}.d,.j{opacity:0.8;}.f{opacity:0.371;}.g{fill:none;stroke:#535461;stroke-miterlimit:10;stroke-width:2px;}.h{opacity:0.25;}.l{fill:#fff;}.m{fill:#fdd55c;}.n{fill:#3acc6c;}</style></defs><g transform="translate(0 -0.001)"><path class="a" d="M377.727,107.888c-31.933-1.107-62.347-11.439-91.389-22.739s-57.808-23.836-88.976-29.8c-20.047-3.856-42.976-4.4-59.125,6.372-15.537,10.361-20.57,28.265-23.269,44.845-2.033,12.487-3.227,25.631,2.339,37.321,3.868,8.117,10.727,14.938,15.473,22.709,16.514,27.054,4.84,60.411-13.051,86.823-8.388,12.388-18.133,24.222-24.611,37.4s-9.473,28.3-3.8,41.755c5.615,13.347,19,23.352,33.5,30.4,29.452,14.311,64.143,18.4,98,20.727,74.914,5.131,150.223,2.912,225.335.682,27.8-.821,55.716-1.656,83.06-5.962,15.187-2.393,30.863-6.189,41.891-15.354,13.993-11.631,17.462-31.325,8.082-45.913-15.73-24.464-59.209-30.539-70.217-56.793-6.049-14.454.163-30.549,8.96-43.95,18.868-28.755,50.49-53.98,52.153-86.843,1.145-22.571-14.057-45.176-37.563-55.858-24.636-11.2-58.8-9.788-76.972,8.74C438.816,101.526,405.915,108.872,377.727,107.888Z" transform="translate(-78.785 -52.82)"/><rect class="b" width="128.044" height="128.282" transform="translate(0 61.039)"/><rect class="b" width="128.044" height="128.282" transform="translate(395.956 61.039)"/><path class="c" d="M198.463,83.419l-1.278-1.31a.266.266,0,0,0-.2-.089.256.256,0,0,0-.2.089l-8.832,8.9-3.217-3.218a.276.276,0,0,0-.4,0l-1.288,1.29a.287.287,0,0,0,0,.415l4.056,4.058a1.267,1.267,0,0,0,.844.415,1.341,1.341,0,0,0,.844-.4h0l9.686-9.733a.312.312,0,0,0,0-.415Z" transform="translate(-126.726 -67.585)"/><path class="c" d="M183.284,65.622a13.043,13.043,0,1,1-9.217,3.821,13.027,13.027,0,0,1,9.217-3.821m0-2.032a15.068,15.068,0,1,0,10.654,4.417,15.078,15.078,0,0,0-10.654-4.417Z" transform="translate(-119.264 -58.266)"/><path class="d" d="M394.77,168.379l-1.608-1.651a.335.335,0,0,0-.252-.109.325.325,0,0,0-.257.109L381.537,177.95l-4.051-4.053a.345.345,0,0,0-.252-.109.355.355,0,0,0-.257.109l-1.623,1.626a.356.356,0,0,0,0,.519l5.1,5.1a1.6,1.6,0,0,0,1.066.519,1.691,1.691,0,0,0,1.056-.494h0l12.187-12.279a.391.391,0,0,0,0-.494Z" transform="translate(-224.14 -110.365)"/><path class="d" d="M375.652,145.966a16.434,16.434,0,1,1-11.605,4.815,16.413,16.413,0,0,1,11.605-4.815m0-2.556a19,19,0,1,0,18.962,19,18.979,18.979,0,0,0-18.962-19Z" transform="translate(-214.741 -98.629)"/><path class="c" d="M985.774,65.622a13.043,13.043,0,1,1-9.217,3.821,13.027,13.027,0,0,1,9.217-3.821m0-2.032a15.068,15.068,0,1,0,10.654,4.417A15.078,15.078,0,0,0,985.774,63.59Z" transform="translate(-525.798 -58.266)"/><path class="d" d="M784.027,145.966a16.364,16.364,0,1,0,.025,0m0-2.556a18.974,18.974,0,1,1-.025,0Z" transform="translate(-421.633 -98.629)"/><path class="e" d="M572.59,206.1a21.717,21.717,0,1,1-15.345,6.362A21.691,21.691,0,0,1,572.59,206.1m0-3.381a25.117,25.117,0,1,0,25.07,25.117,25.093,25.093,0,0,0-25.07-25.117Z" transform="translate(-311.414 -128.621)"/><rect class="b" width="142.694" height="142.958" transform="translate(89.564 94.663)"/><rect class="b" width="142.694" height="142.958" transform="translate(291.047 94.663)"/><rect class="f" width="47.594" height="5.299" transform="translate(12.794 83.813)"/><rect class="f" width="47.594" height="5.299" transform="translate(418.998 83.813)"/><path class="g" d="M770.19,617.006s12.365-21.943,30.986-28.265a38.114,38.114,0,0,0,19.3-14.464A64.611,64.611,0,0,0,826.172,564" transform="translate(-424.217 -311.312)"/><path class="e" d="M895.055,546.4c-2.122,2.061-12,4.2-12,4.2s2.428-9.832,4.549-11.9a5.359,5.359,0,0,1,7.455,7.7Z" transform="translate(-481.391 -297.753)"/><path class="e" d="M883.385,580.966c-2.9.578-12.335-3.01-12.335-3.01s7.367-6.921,10.268-7.509a5.363,5.363,0,0,1,2.082,10.519Z" transform="translate(-475.311 -314.531)"/><path class="e" d="M845.413,620.141c-2.793-.989-9.143-8.848-9.143-8.848s9.868-2.259,12.646-1.29a5.363,5.363,0,0,1-3.5,10.139Z" transform="translate(-457.692 -334.452)"/><path class="e" d="M806.21,642.322c-2.921-.494-10.51-7.173-10.51-7.173s9.335-3.89,12.251-3.411a5.363,5.363,0,0,1-1.742,10.584Z" transform="translate(-437.14 -345.545)"/><path class="e" d="M854.31,564.7c0,2.966,5.349,11.552,5.349,11.552s5.349-8.586,5.349-11.547a5.353,5.353,0,1,0-10.707,0Z" transform="translate(-466.826 -308.955)"/><path class="e" d="M810.138,589.874c.883,2.827,8.556,9.422,8.556,9.422s2.546-9.8,1.663-12.625a5.354,5.354,0,1,0-10.219,3.2Z" transform="translate(-444.33 -320.873)"/><path class="e" d="M771.22,622.671c.395,2.936,6.839,10.732,6.839,10.732s4.164-9.224,3.775-12.16a5.354,5.354,0,1,0-10.613,1.429Z" transform="translate(-424.714 -337.906)"/><path class="h" d="M895.055,546.4c-2.122,2.061-12,4.2-12,4.2s2.428-9.832,4.549-11.9a5.359,5.359,0,0,1,7.455,7.7Z" transform="translate(-481.391 -297.753)"/><path class="h" d="M883.385,580.966c-2.9.578-12.335-3.01-12.335-3.01s7.367-6.921,10.268-7.509a5.363,5.363,0,0,1,2.082,10.519Z" transform="translate(-475.311 -314.531)"/><path class="h" d="M845.413,620.141c-2.793-.989-9.143-8.848-9.143-8.848s9.868-2.259,12.646-1.29a5.363,5.363,0,0,1-3.5,10.139Z" transform="translate(-457.692 -334.452)"/><path class="h" d="M806.21,642.322c-2.921-.494-10.51-7.173-10.51-7.173s9.335-3.89,12.251-3.411a5.363,5.363,0,0,1-1.742,10.584Z" transform="translate(-437.14 -345.545)"/><path class="h" d="M854.31,564.7c0,2.966,5.349,11.552,5.349,11.552s5.349-8.586,5.349-11.547a5.353,5.353,0,1,0-10.707,0Z" transform="translate(-466.826 -308.955)"/><path class="h" d="M810.138,589.874c.883,2.827,8.556,9.422,8.556,9.422s2.546-9.8,1.663-12.625a5.354,5.354,0,1,0-10.219,3.2Z" transform="translate(-444.33 -320.873)"/><path class="h" d="M771.22,622.671c.395,2.936,6.839,10.732,6.839,10.732s4.164-9.224,3.775-12.16a5.354,5.354,0,1,0-10.613,1.429Z" transform="translate(-424.714 -337.906)"/><path class="g" d="M771.63,597.527s2.432-25.077,16.894-38.419a38.239,38.239,0,0,0,11.8-21.073,64.529,64.529,0,0,0,1.051-11.7" transform="translate(-424.946 -292.268)"/><path class="e" d="M839.718,501.711c-1.105,2.748-9.276,8.71-9.276,8.71s-1.761-9.971-.656-12.719a5.355,5.355,0,1,1,9.932,4.009Z" transform="translate(-454.223 -276.087)"/><path class="e" d="M841.668,536.863c-2.418,1.705-12.508,2.264-12.508,2.264s3.947-9.333,6.35-11.033a5.36,5.36,0,0,1,6.158,8.769Z" transform="translate(-454.09 -292.707)"/><path class="e" d="M820.326,588.108c-2.96.247-11.935-4.375-11.935-4.375s8.092-6.065,11.037-6.312a5.363,5.363,0,0,1,.9,10.688Z" transform="translate(-443.569 -318.088)"/><path class="e" d="M794.238,624.108c-2.867.742-12.508-2.294-12.508-2.294s6.957-7.346,9.819-8.092a5.362,5.362,0,0,1,2.689,10.382Z" transform="translate(-430.063 -336.367)"/><path class="e" d="M807.118,536.182c1.2,2.709,9.562,8.4,9.562,8.4s1.426-10.025.232-12.734a5.357,5.357,0,1,0-9.794,4.345Z" transform="translate(-442.691 -293.44)"/><path class="e" d="M776.924,577.072c1.974,2.224,11.635,5.141,11.635,5.141s-1.638-10-3.587-12.22a5.359,5.359,0,1,0-8.047,7.079Z" transform="translate(-426.954 -313.419)"/><path class="e" d="M754.636,622.84c1.544,2.526,10.594,7.039,10.594,7.039s.079-10.129-1.48-12.655a5.356,5.356,0,1,0-9.123,5.616Z" transform="translate(-415.93 -336.933)"/><rect class="f" width="47.594" height="5.299" transform="translate(107.983 125.178)"/><rect class="i" width="28.415" height="5.299" transform="translate(195.686 171.758)"/><rect class="i" width="42.078" height="5.299" transform="translate(195.686 207.319)"/><rect class="f" width="47.594" height="5.299" transform="translate(107.983 143.853)"/><rect class="f" width="47.594" height="5.299" transform="translate(322.156 125.178)"/><rect class="f" width="47.594" height="5.299" transform="translate(322.156 143.853)"/><path class="e" d="M584.66,252.491l1.332-1.75a6.9,6.9,0,0,0,4.8,1.977c2.25,0,3.918-1.1,3.918-2.887,0-1.938-1.6-3.213-6.029-3.213v-2.012c3.947,0,5.427-1.3,5.427-3.015,0-1.552-1.327-2.521-3.3-2.521a6.339,6.339,0,0,0-4.125,1.691l-1.416-1.691a8.621,8.621,0,0,1,5.65-2.2c3.409,0,5.921,1.641,5.921,4.518,0,2.027-1.48,3.352-3.612,4.083v.109c2.284.494,4.2,2.012,4.2,4.38,0,3.124-2.961,5-6.454,5A8.55,8.55,0,0,1,584.66,252.491Z" transform="translate(-330.229 -145.889)"/><g class="j" transform="translate(355.614 55.454)"><path class="e" d="M798.083,170.6c0-.949.084-2.16.133-3.109h-.123c-.543.84-1.16,1.676-1.712,2.511l-3.947,5.072h10.48v2.042H789.73v-1.73L797.6,165h2.9v16.505h-2.413Z" transform="translate(-789.73 -165)"/></g><g class="k" transform="translate(454.849 15.102)"><path class="e" d="M990.85,93.914l.893-1.221a4.639,4.639,0,0,0,3.232,1.33,2.567,2.567,0,0,0,2.837-2.506c0-1.557-1.1-2.4-2.734-2.4a4.173,4.173,0,0,0-2.329.687l-.928-.6.375-5.838H999.1v1.607h-5.28l-.291,3.2a4.847,4.847,0,0,1,2.048-.435c2.265,0,4.11,1.167,4.11,3.747s-2.161,4.088-4.495,4.088a6.058,6.058,0,0,1-4.347-1.661Z" transform="translate(-990.85 -83.37)"/></g><rect class="a" width="176.389" height="176.715" transform="translate(171.292 140.052)"/><rect class="l" width="176.389" height="176.715" transform="translate(177.213 131.648)"/><rect class="m" width="139.437" height="5.299" transform="translate(195.686 151.224)"/><rect class="f" width="88.789" height="5.299" transform="translate(195.686 189.539)"/><rect class="f" width="86.149" height="5.299" transform="translate(195.686 225.105)"/><rect class="f" width="117.436" height="5.299" transform="translate(195.686 242.886)"/><path class="n" d="M688.929,436.517l-.607-.628a.148.148,0,0,0-.1-.04.133.133,0,0,0-.094.04l-4.209,4.251-1.535-1.537a.157.157,0,0,0-.1-.04.143.143,0,0,0-.094.04l-.617.618a.138.138,0,0,0,0,.2l1.934,1.933a.512.512,0,0,0,.8,0h0l4.613-4.642a.158.158,0,0,0,0-.2Z" transform="translate(-379.305 -246.509)"/><path class="n" d="M681.694,428.014a6.227,6.227,0,1,1-4.391,1.824,6.22,6.22,0,0,1,4.391-1.824m0-.964a7.184,7.184,0,1,1,0,.01Z" transform="translate(-375.746 -242.059)"/><path class="n" d="M688.929,508.462l-.607-.623a.128.128,0,0,0-.1-.039.118.118,0,0,0-.094.039l-4.209,4.246-1.535-1.532a.138.138,0,0,0-.1-.045.128.128,0,0,0-.094.045l-.617.613a.139.139,0,0,0,0,.2l1.934,1.938a.617.617,0,0,0,.4.2.646.646,0,0,0,.4-.193h0l4.613-4.647a.158.158,0,0,0,0-.2Z" transform="translate(-379.305 -282.892)"/><path class="n" d="M681.694,499.989a6.228,6.228,0,1,1-4.391,1.824,6.22,6.22,0,0,1,4.391-1.824m0-.989a7.192,7.192,0,1,0,7.174,7.191A7.186,7.186,0,0,0,681.694,499Z" transform="translate(-375.746 -278.443)"/></g></svg>