<?xml version="1.0" encoding="UTF-8" standalone="no"?>
<svg
   width="432"
   height="365.001"
   viewBox="0 0 432 365.001"
   version="1.1"
   id="svg202"
   sodipodi:docname="ill_domino_history.svg"
   inkscape:version="1.2.2 (732a01da63, 2022-12-09, custom)"
   xmlns:inkscape="http://www.inkscape.org/namespaces/inkscape"
   xmlns:sodipodi="http://sodipodi.sourceforge.net/DTD/sodipodi-0.dtd"
   xmlns="http://www.w3.org/2000/svg"
   xmlns:svg="http://www.w3.org/2000/svg">
  <sodipodi:namedview
     id="namedview204"
     pagecolor="#ffffff"
     bordercolor="#000000"
     borderopacity="0.25"
     inkscape:showpageshadow="2"
     inkscape:pageopacity="0.0"
     inkscape:pagecheckerboard="0"
     inkscape:deskcolor="#d1d1d1"
     showgrid="false"
     inkscape:zoom="3.0394432"
     inkscape:cx="192.14046"
     inkscape:cy="183.25725"
     inkscape:window-width="3432"
     inkscape:window-height="1323"
     inkscape:window-x="2564"
     inkscape:window-y="28"
     inkscape:window-maximized="0"
     inkscape:current-layer="svg202" />
  <defs
     id="defs166">
    <rect
       x="69.457962"
       y="125.6969"
       width="232.72263"
       height="115.66988"
       id="rect1322" />
    <rect
       x="162.32623"
       y="80.965782"
       width="332.3761"
       height="15.188991"
       id="rect1262" />
    <style
       id="style153">
            .a{fill:#e6ecf7;}.b{fill:#e14b5a;}.c{fill:#fdd55c;}.d{fill:#14c397;}.e{fill:#acb7d0;}.f{fill:#403f3d;}.g{filter:url(#a);}
        </style>
    <filter
       id="a"
       x="44.471001"
       y="0"
       width="386.52899"
       height="314.19199"
       filterUnits="userSpaceOnUse">
      <feOffset
         dy="20"
         input="SourceAlpha"
         id="feOffset155" />
      <feGaussianBlur
         stdDeviation="20"
         result="b"
         id="feGaussianBlur157" />
      <feFlood
         flood-color="#acb7d0"
         flood-opacity="0.239"
         id="feFlood159" />
      <feComposite
         operator="in"
         in2="b"
         id="feComposite161"
         result="result1" />
      <feComposite
         in="SourceGraphic"
         in2="result1"
         id="feComposite163" />
    </filter>
    <filter
       style="color-interpolation-filters:sRGB"
       inkscape:label="Drop Shadow"
       id="filter1094"
       x="-0.020024928"
       y="-0.035779105"
       width="1.0442217"
       height="1.0790122">
      <feFlood
         flood-opacity="0.498039"
         flood-color="rgb(0,0,0)"
         result="flood"
         id="feFlood1084" />
      <feComposite
         in="flood"
         in2="SourceGraphic"
         operator="in"
         result="composite1"
         id="feComposite1086" />
      <feGaussianBlur
         in="composite1"
         stdDeviation="2"
         result="blur"
         id="feGaussianBlur1088" />
      <feOffset
         dx="1"
         dy="1"
         result="offset"
         id="feOffset1090" />
      <feComposite
         in="SourceGraphic"
         in2="offset"
         operator="over"
         result="composite2"
         id="feComposite1092" />
    </filter>
    <filter
       style="color-interpolation-filters:sRGB"
       inkscape:label="Drop Shadow"
       id="filter1094-0"
       x="-0.020024929"
       y="-0.035779106"
       width="1.0442217"
       height="1.0790122">
      <feFlood
         flood-opacity="0.498039"
         flood-color="rgb(0,0,0)"
         result="flood"
         id="feFlood1084-2" />
      <feComposite
         in="flood"
         in2="SourceGraphic"
         operator="in"
         result="composite1"
         id="feComposite1086-5" />
      <feGaussianBlur
         in="composite1"
         stdDeviation="2"
         result="blur"
         id="feGaussianBlur1088-7" />
      <feOffset
         dx="1"
         dy="1"
         result="offset"
         id="feOffset1090-2" />
      <feComposite
         in="SourceGraphic"
         in2="offset"
         operator="over"
         result="composite2"
         id="feComposite1092-2" />
    </filter>
    <filter
       style="color-interpolation-filters:sRGB"
       inkscape:label="Drop Shadow"
       id="filter1258"
       x="-0.020024929"
       y="-0.035779106"
       width="1.0442217"
       height="1.0790122">
      <feFlood
         flood-opacity="0.498039"
         flood-color="rgb(0,0,0)"
         result="flood"
         id="feFlood1248" />
      <feComposite
         in="flood"
         in2="SourceGraphic"
         operator="in"
         result="composite1"
         id="feComposite1250" />
      <feGaussianBlur
         in="composite1"
         stdDeviation="2"
         result="blur"
         id="feGaussianBlur1252" />
      <feOffset
         dx="1"
         dy="1"
         result="offset"
         id="feOffset1254" />
      <feComposite
         in="SourceGraphic"
         in2="offset"
         operator="over"
         result="composite2"
         id="feComposite1256" />
    </filter>
  </defs>
  <g
     id="g422"
     transform="translate(4.3535677,-46.402506)">
    <g
       transform="translate(-67.187245,102.23191)"
       id="g200">
      <g
         class="g"
         transform="translate(57.64,-37.86)"
         id="g170">
        <path
           class="a"
           d="M 117.88278,203.59732 118.91489,70.017819 357.58401,70.594836 356.5519,204.17433 Z"
           id="path168"
           style="filter:url(#filter1258)" />
      </g>
      <ellipse
         class="b"
         cx="165.49074"
         cy="83.443947"
         rx="1.904"
         ry="1.887"
         transform="rotate(-15.5)"
         id="ellipse172" />
      <ellipse
         class="c"
         cx="171.35274"
         cy="85.087944"
         rx="1.904"
         ry="1.887"
         transform="rotate(-15.5)"
         id="ellipse174" />
      <ellipse
         class="d"
         cx="177.21474"
         cy="86.730934"
         rx="1.904"
         ry="1.887"
         transform="rotate(-15.5)"
         id="ellipse176" />
      <path
         class="e"
         d="m 236.81065,72.187458 a 11.431,11.431 0 0 0 -4.53215,1.372074 11.124,11.124 0 0 0 -0.94441,-4.659064 11.259,11.259 0 0 0 -3.35467,3.7395 11.11,11.11 0 0 0 -3.29847,-3.75509 11.185,11.185 0 0 0 -1.01313,4.654009 11.346,11.346 0 0 0 -4.51145,-1.397183 8.994,8.994 0 0 0 8.63659,8.544741 l 0.018,0.01264 0.003,-0.01057 0.10599,0.0082 c 0,0 -0.006,-0.06902 -0.0207,-0.192545 l 0.0221,-0.0508 0.0222,0.05088 c -0.0168,0.122911 -0.024,0.192203 -0.024,0.192203 l 0.10198,-0.0065 0.005,0.01161 0.0192,-0.01258 a 9.1,9.1 0 0 0 8.76389,-8.501227 z"
         id="path178" />
      <ellipse
         class="e"
         cx="203.10173"
         cy="121.24895"
         rx="2.523"
         ry="2.5009999"
         transform="rotate(-15.5)"
         id="ellipse180" />
      <path
         class="e"
         d="m 219.1792,88.598247 154.48407,0.375916 -0.0261,3.399918 -154.48405,-0.381921 z"
         id="path182" />
      <path
         class="d"
         d="m 233.51686,105.25785 26.64604,0.0649 -0.20488,26.44929 -26.64504,-0.0649 z"
         id="path184" />
      <path
         class="c"
         d="m 282.98205,105.39693 26.64603,0.0649 -0.20487,26.44929 -26.64502,-0.0649 z"
         id="path186" />
      <path
         class="d"
         d="m 332.44698,105.53501 26.64601,0.0649 -0.20488,26.44927 -26.64501,-0.0648 z"
         id="path188" />
      <path
         class="e"
         d="m 236.70848,136.99444 19.78702,0.0481 -0.0175,2.27394 -19.78702,-0.0481 z"
         id="path190" />
      <path
         class="e"
         d="m 286.1737,137.1335 19.78699,0.0481 -0.0175,2.27394 -19.787,-0.0481 z"
         id="path192" />
      <path
         class="e"
         d="m 335.63887,137.27254 19.78702,0.0482 -0.0176,2.27394 -19.78699,-0.0481 z"
         id="path194" />
    </g>
    <g
       id="g374"
       transform="translate(69.211606,141.07636)">
      <path
         class="a"
         d="m 18.485525,149.67347 1.03211,-133.579504 238.669125,0.57701 -1.03211,133.579504 z"
         id="path168-7"
         style="fill:#e6ecf7;filter:url(#filter1094)" />
      <ellipse
         class="b"
         cx="18.457754"
         cy="25.997946"
         rx="1.904"
         ry="1.887"
         transform="rotate(-15.5)"
         id="ellipse172-5"
         style="fill:#e14b5a" />
      <ellipse
         class="c"
         cx="24.319754"
         cy="27.641943"
         rx="1.904"
         ry="1.887"
         transform="rotate(-15.5)"
         id="ellipse174-2"
         style="fill:#fdd55c" />
      <ellipse
         class="d"
         cx="30.181753"
         cy="29.284933"
         rx="1.904"
         ry="1.887"
         transform="rotate(-15.5)"
         id="ellipse176-1"
         style="fill:#14c397" />
      <path
         class="e"
         d="m 79.773395,56.123611 a 11.431,11.431 0 0 0 -4.53215,1.37207 11.124,11.124 0 0 0 -0.94441,-4.65906 11.259,11.259 0 0 0 -3.35467,3.7395 11.11,11.11 0 0 0 -3.29847,-3.75509 11.185,11.185 0 0 0 -1.01313,4.65401 11.346,11.346 0 0 0 -4.51145,-1.39719 8.994,8.994 0 0 0 8.63659,8.54475 l 0.018,0.0126 0.003,-0.0106 0.10599,0.008 c 0,0 -0.006,-0.069 -0.0207,-0.19255 l 0.0221,-0.0508 0.0222,0.0509 c -0.0168,0.12291 -0.024,0.1922 -0.024,0.1922 l 0.10198,-0.007 0.005,0.0116 0.0192,-0.0126 a 9.1,9.1 0 0 0 8.76389,-8.50122 z"
         id="path178-4"
         style="fill:#acb7d0" />
      <ellipse
         class="e"
         cx="56.068748"
         cy="63.802959"
         rx="2.523"
         ry="2.5009999"
         transform="rotate(-15.5)"
         id="ellipse180-7"
         style="fill:#acb7d0" />
      <path
         class="e"
         d="m 62.141945,72.534401 154.484075,0.37591 -0.0261,3.39992 -154.484055,-0.38192 z"
         id="path182-5"
         style="fill:#acb7d0" />
      <path
         class="d"
         d="m 76.479605,89.194001 26.646045,0.0649 -0.20488,26.449289 -26.645045,-0.0649 z"
         id="path184-0"
         style="fill:#14c397" />
      <path
         class="c"
         d="m 125.9448,89.333081 26.64603,0.0649 -0.20487,26.449289 -26.64502,-0.0649 z"
         id="path186-6"
         style="fill:#fdd55c" />
      <path
         class="d"
         d="m 175.40973,89.471161 26.64601,0.0649 -0.20488,26.449269 -26.64501,-0.0648 z"
         id="path188-9"
         style="fill:#14c397" />
      <path
         class="e"
         d="m 79.671225,120.93059 19.78702,0.0481 -0.0175,2.27394 -19.78702,-0.0481 z"
         id="path190-6"
         style="fill:#acb7d0" />
      <path
         class="e"
         d="m 129.13645,121.06965 19.78699,0.0481 -0.0175,2.27394 -19.787,-0.0481 z"
         id="path192-3"
         style="fill:#acb7d0" />
      <path
         class="e"
         d="m 178.60162,121.20869 19.78702,0.0482 -0.0176,2.27394 -19.78699,-0.0481 z"
         id="path194-1"
         style="fill:#acb7d0" />
    </g>
    <g
       id="g359"
       transform="translate(-85.724962,85.156809)">
      <path
         class="a"
         d="m 153.62454,225.53193 1.03211,-133.579501 238.66912,0.57701 -1.03211,133.579501 z"
         id="path168-7-7"
         style="fill:#e6ecf7;filter:url(#filter1094-0)" />
      <ellipse
         class="b"
         cx="128.40955"
         cy="135.21181"
         rx="1.904"
         ry="1.887"
         transform="rotate(-15.5)"
         id="ellipse172-5-8"
         style="fill:#e14b5a" />
      <ellipse
         class="c"
         cx="134.27153"
         cy="136.8558"
         rx="1.904"
         ry="1.887"
         transform="rotate(-15.5)"
         id="ellipse174-2-1"
         style="fill:#fdd55c" />
      <ellipse
         class="d"
         cx="140.13353"
         cy="138.49879"
         rx="1.904"
         ry="1.887"
         transform="rotate(-15.5)"
         id="ellipse176-1-3"
         style="fill:#14c397" />
      <path
         class="e"
         d="m 214.91241,131.98207 a 11.431,11.431 0 0 0 -4.53215,1.37207 11.124,11.124 0 0 0 -0.94441,-4.65906 11.259,11.259 0 0 0 -3.35467,3.7395 11.11,11.11 0 0 0 -3.29847,-3.75509 11.185,11.185 0 0 0 -1.01313,4.65401 11.346,11.346 0 0 0 -4.51145,-1.39719 8.994,8.994 0 0 0 8.63659,8.54475 l 0.018,0.0126 0.003,-0.0106 0.10599,0.008 c 0,0 -0.006,-0.069 -0.0207,-0.19255 l 0.0221,-0.0508 0.0222,0.0509 c -0.0168,0.12291 -0.024,0.1922 -0.024,0.1922 l 0.10198,-0.007 0.005,0.0116 0.0192,-0.0126 a 9.1,9.1 0 0 0 8.76389,-8.50122 z"
         id="path178-4-1"
         style="fill:#acb7d0" />
      <ellipse
         class="e"
         cx="166.02052"
         cy="173.01683"
         rx="2.523"
         ry="2.5009999"
         transform="rotate(-15.5)"
         id="ellipse180-7-3"
         style="fill:#acb7d0" />
      <path
         class="e"
         d="m 197.28096,148.39286 154.48407,0.37591 -0.0261,3.39992 -154.48405,-0.38192 z"
         id="path182-5-4"
         style="fill:#acb7d0" />
      <path
         class="d"
         d="m 211.61862,165.05246 26.64604,0.0649 -0.20488,26.4493 -26.64504,-0.0649 z"
         id="path184-0-0"
         style="fill:#14c397" />
      <path
         class="c"
         d="m 261.08381,165.19154 26.64603,0.0649 -0.20487,26.44929 -26.64502,-0.0649 z"
         id="path186-6-3"
         style="fill:#fdd55c" />
      <path
         class="d"
         d="m 310.54874,165.32962 26.64601,0.0649 -0.20488,26.44927 -26.64501,-0.0648 z"
         id="path188-9-2"
         style="fill:#14c397" />
      <path
         class="e"
         d="m 214.81024,196.78905 19.78702,0.0481 -0.0175,2.27395 -19.78702,-0.0481 z"
         id="path190-6-1"
         style="fill:#acb7d0" />
      <path
         class="e"
         d="m 264.27546,196.92811 19.78699,0.0481 -0.0175,2.27395 -19.787,-0.0481 z"
         id="path192-3-1"
         style="fill:#acb7d0" />
      <path
         class="e"
         d="m 313.74063,197.06716 19.78702,0.0482 -0.0176,2.27394 -19.78699,-0.0481 z"
         id="path194-1-2"
         style="fill:#acb7d0" />
    </g>
    <text
       xml:space="preserve"
       id="text1260"
       style="font-size:8px;white-space:pre;shape-inside:url(#rect1262);shape-padding:0.224454;fill:#000000"
       transform="translate(-73.792896,104.90347)"><tspan
         x="162.55078"
         y="88.267578"
         id="tspan519"><tspan
           style="font-weight:bold;-inkscape-font-specification:'sans-serif Bold'"
           id="tspan517">http://localhost:8080/solutions/domino-history/v1</tspan></tspan></text>
  </g>
</svg>
