<svg xmlns="http://www.w3.org/2000/svg" xmlns:xlink="http://www.w3.org/1999/xlink" width="479.764" height="531" viewBox="0 0 479.764 531">
  <defs>
    <linearGradient id="linear-gradient" x1="0.5" y1="1" x2="0.5" gradientUnits="objectBoundingBox">
      <stop offset="0" stop-color="gray" stop-opacity="0.251"/>
      <stop offset="0.54" stop-color="gray" stop-opacity="0.122"/>
      <stop offset="1" stop-color="gray" stop-opacity="0.102"/>
    </linearGradient>
    <filter id="ic_thinking_bubble" x="0.214" y="0" width="230" height="230" filterUnits="userSpaceOnUse">
      <feOffset dy="3" input="SourceAlpha"/>
      <feGaussianBlur stdDeviation="3" result="blur"/>
      <feFlood flood-opacity="0.161"/>
      <feComposite operator="in" in2="blur"/>
      <feComposite in="SourceGraphic"/>
    </filter>
  </defs>
  <g id="Illustration" transform="translate(-35.786 112)">
    <g id="Coding_using_DominoKit" data-name="Coding using DominoKit" transform="translate(35.79)">
      <rect id="Rectangle_5" data-name="Rectangle 5" width="27.685" height="14.375" transform="translate(406.656 150.67)" fill="#403f3d" opacity="0.2"/>
      <rect id="Rectangle_6" data-name="Rectangle 6" width="27.685" height="14.375" transform="translate(408.786 168.239)" fill="#403f3d" opacity="0.2"/>
      <rect id="Rectangle_7" data-name="Rectangle 7" width="27.685" height="14.375" transform="translate(385.892 46.319)" fill="#403f3d" opacity="0.2"/>
      <rect id="Rectangle_8" data-name="Rectangle 8" width="27.685" height="14.375" transform="translate(405.591 62.823)" fill="#403f3d" opacity="0.2"/>
      <rect id="Rectangle_9" data-name="Rectangle 9" width="27.685" height="14.375" transform="translate(352.351 47.384)" fill="#403f3d" opacity="0.2"/>
      <rect id="Rectangle_10" data-name="Rectangle 10" width="27.685" height="14.375" transform="translate(441.262 79.328)" fill="#403f3d" opacity="0.2"/>
      <rect id="Rectangle_11" data-name="Rectangle 11" width="27.685" height="14.375" transform="translate(407.721 80.393)" fill="#403f3d" opacity="0.2"/>
      <rect id="Rectangle_12" data-name="Rectangle 12" width="27.685" height="14.375" transform="translate(372.05 63.888)" fill="#403f3d" opacity="0.2"/>
      <rect id="Rectangle_13" data-name="Rectangle 13" width="27.685" height="14.375" transform="translate(439.665 190.067)" fill="#403f3d" opacity="0.2"/>
      <rect id="Rectangle_14" data-name="Rectangle 14" width="27.685" height="14.375" transform="translate(406.124 191.132)" fill="#403f3d" opacity="0.2"/>
      <path id="Path_119" data-name="Path 119" d="M244.139,332.5s39.02,39.02,16.994,96.9,37.753,154.2,37.753,154.2-.639-.1-1.826-.3C216.923,569.152,177.1,477.5,221.688,409.432,238.235,384.1,251.833,354.4,244.139,332.5Z" transform="translate(-174.43 -185.557)" fill="#14c397"/>
      <path id="Path_120" data-name="Path 120" d="M272.236,332.5s22.025,47.831,0,86.845-3.775,148.54,54.752,164.257" transform="translate(-202.526 -185.557)" fill="none" stroke="#403f3d" stroke-miterlimit="10" stroke-width="2"/>
      <path id="Path_121" data-name="Path 121" d="M149.63,628.492s44.525-7.092,48.582,32.812,85.621,45.435,85.621,45.435-.532.362-1.528,1.017c-67.343,44.189-131.716,28.159-122.01-30.539C163.9,655.394,163.6,633.475,149.63,628.492Z" transform="translate(-149.42 -323.734)" fill="#14c397"/>
      <path id="Path_122" data-name="Path 122" d="M149.63,628.492s44.525-7.092,48.582,32.812,85.621,45.435,85.621,45.435-.532.362-1.528,1.017c-67.343,44.189-131.716,28.159-122.01-30.539C163.9,655.394,163.6,633.475,149.63,628.492Z" transform="translate(-149.42 -323.734)" fill="#14c397" opacity="0.2"/>
      <path id="Path_123" data-name="Path 123" d="M149.63,628.92s34.558,7.587,31.72,39.009,51.323,69.111,102.482,39.238" transform="translate(-149.42 -324.163)" fill="none" stroke="#403f3d" stroke-miterlimit="10" stroke-width="2"/>
      <rect id="Rectangle_15" data-name="Rectangle 15" width="27.685" height="14.375" transform="translate(0.434 151.202)" fill="#403f3d" opacity="0.2"/>
      <rect id="Rectangle_16" data-name="Rectangle 16" width="27.685" height="14.375" transform="translate(20.132 167.706)" fill="#403f3d" opacity="0.2"/>
      <rect id="Rectangle_17" data-name="Rectangle 17" width="27.685" height="14.375" transform="translate(169.737)" fill="#403f3d" opacity="0.2"/>
      <rect id="Rectangle_18" data-name="Rectangle 18" width="27.685" height="14.375" transform="translate(388.022 265.136)" fill="#403f3d" opacity="0.2"/>
      <rect id="Rectangle_19" data-name="Rectangle 19" width="27.685" height="14.375" transform="translate(22.262 185.276)" fill="#403f3d" opacity="0.2"/>
      <rect id="Rectangle_20" data-name="Rectangle 20" width="27.685" height="14.375" transform="translate(189.436 16.504)" fill="#403f3d" opacity="0.2"/>
      <rect id="Rectangle_21" data-name="Rectangle 21" width="27.685" height="14.375" transform="translate(88.28 113.934)" fill="#403f3d" opacity="0.2"/>
      <rect id="Rectangle_22" data-name="Rectangle 22" width="27.685" height="14.375" transform="translate(107.979 130.438)" fill="#403f3d" opacity="0.2"/>
      <rect id="Rectangle_23" data-name="Rectangle 23" width="27.685" height="14.375" transform="translate(160.686 121.388)" fill="#403f3d" opacity="0.2"/>
      <rect id="Rectangle_24" data-name="Rectangle 24" width="27.685" height="14.375" transform="translate(110.108 148.008)" fill="#403f3d" opacity="0.2"/>
      <rect id="Rectangle_25" data-name="Rectangle 25" width="27.685" height="14.375" transform="translate(425.29 265.136)" fill="#403f3d" opacity="0.2"/>
      <path id="Path_124" data-name="Path 124" d="M627.1,286.7a219.475,219.475,0,0,1-3.29-30.192h0a40.463,40.463,0,0,0-28.462-36.938c-2.907-.894-6.107-1.73-9.642-2.481-30.986-6.58-40.4-.836-41.469-.08a39.733,39.733,0,0,1-2.359-5.116c-.053-.181-.1-.362-.154-.532a39.67,39.67,0,0,0,10.6-23.9c5.17-5.239,8.188-11.564,8.188-18.373a25.22,25.22,0,0,0-6.149-16.105v-9.253A40.234,40.234,0,0,0,514.131,103.5h-3.264a40.234,40.234,0,0,0-40.234,40.234v9.972a24.963,24.963,0,0,0-5.564,15.376c0,6.666,2.9,12.863,7.869,18.038a39.674,39.674,0,0,0,11.042,24.671c.218,1.512.442,3.136.66,4.85l-55.423,11.708s-21.371.878-35.138,29.282C382.436,281.689,359.266,343.5,352.4,361.9h0c-1.241,3.333-1.943,5.244-1.943,5.244s.229-.229.66-.623l-.66,1.794s.335-.341.974-.9c-.969,7.7-1.107,20.918,8.976,22.563,8.455,1.379,30.24,1.949,46.7,2.178h1.139c10.909.144,19.209.144,19.209.144v-.144H604.448v-1.816a12.2,12.2,0,0,0-.974-4.792l.245-.3a9.716,9.716,0,0,1,1.837,4.259,4.248,4.248,0,0,1-.085.447l.107-.272a4.556,4.556,0,0,1-.107,1.443s22.707-58.506,22.462-93.442A59.185,59.185,0,0,0,627.1,286.7ZM485.562,224.547A40.581,40.581,0,0,1,485,219.5v-.048C485.195,221.1,485.387,222.8,485.562,224.547Zm-68.8,125.668v13.944l-8.731,1.869Z" transform="translate(-243.328 -78.477)" fill="url(#linear-gradient)"/>
      <path id="Path_125" data-name="Path 125" d="M468.374,57.57h0A40.234,40.234,0,0,1,508.607,97.8v17.165H428.14V97.8A40.234,40.234,0,0,1,468.374,57.57Z" transform="translate(-200.099 -26.92)" fill="#e14b5a"/>
      <ellipse id="Ellipse_24" data-name="Ellipse 24" cx="45.861" cy="31.513" rx="45.861" ry="31.513" transform="translate(222.695 62.163)" fill="#e14b5a"/>
      <path id="Path_126" data-name="Path 126" d="M597.1,281.139s9.583,50.083,0,63.59,29.282,18.852,29.282,18.852l40.228-14.63,5.628-36.017s-24.49-13.789-19.417-41.644Z" transform="translate(-357.948 -156.935)" fill="#f7c4a7"/>
      <path id="Path_127" data-name="Path 127" d="M787.358,593.793s2.534,10.973-11.255,12.943a77.968,77.968,0,0,1-24.533-.293l-3.04-27.562h32.077Z" transform="translate(-429.465 -300.764)" fill="#f7c4a7"/>
      <path id="Path_128" data-name="Path 128" d="M362.943,566.65s-6.091,24.751,7.7,26.987,64.421,2.252,64.421,2.252V566.608l-22.925,4.9-21.52-20.636Z" transform="translate(-248.538 -287.667)" fill="#f7c4a7"/>
      <path id="Path_129" data-name="Path 129" d="M490.2,318.04l-53.884,11.393s-20.54.846-33.765,28.137S360.62,462.806,360.62,462.806s24.49-24.762,53.182,1.688l19.135-34.606-4.222,54.869H576.977V458.866s30.948,16.6,28.7,25.885c0,0,26.487-68.243,20.764-99.256a210.911,210.911,0,0,1-3.162-29.016h0a38.866,38.866,0,0,0-27.355-35.5c-2.79-.857-5.856-1.661-9.264-2.38-31.795-6.751-39.93,0-39.93,0s-6.16,20.04-6.048,29.122c.138,11.676-16.6,19.417-16.6,19.417s-24.762-5.91-25.885-10.691S488.215,323.668,490.2,318.04Z" transform="translate(-248.079 -177.657)" opacity="0.1"/>
      <path id="Path_130" data-name="Path 130" d="M490.191,315.93l-53.884,11.393s-20.54.847-33.765,28.137S360.61,460.706,360.61,460.706s24.49-24.762,53.182,1.688l19.135-34.606L428.7,482.641H576.973V456.756s30.948,16.6,28.7,25.885c0,0,26.487-68.243,20.764-99.256a210.929,210.929,0,0,1-3.162-29.016h0a38.865,38.865,0,0,0-27.355-35.5c-2.79-.857-5.856-1.661-9.264-2.38-31.795-6.751-39.93,0-39.93,0s-6.16,20.04-6.048,29.122c.138,11.676-16.6,19.417-16.6,19.417s-24.762-5.91-25.885-10.691S488.211,321.558,490.191,315.93Z" transform="translate(-248.074 -176.67)" fill="#575988"/>
      <path id="Path_131" data-name="Path 131" d="M657.191,296.036a38.082,38.082,0,0,1-1.469-19.976L600,285.9s.8,4.211,1.714,10.52a38.258,38.258,0,0,0,55.466-.389Z" transform="translate(-360.012 -159.166)" opacity="0.1"/>
      <path id="Path_132" data-name="Path 132" d="M658.057,226.061a38.266,38.266,0,1,1-76.527.926c.005-.309.005-.618.005-.926A38.256,38.256,0,0,1,626.22,188.33h0a38.237,38.237,0,0,1,31.736,35.192Q658.057,224.783,658.057,226.061Z" transform="translate(-351.376 -117.893)" fill="#f7c4a7"/>
      <g id="Group_151" data-name="Group 151" transform="translate(230.154 71.305)" opacity="0.1">
        <path id="Path_133" data-name="Path 133" d="M606.462,193.9l.053-.032a38.235,38.235,0,0,0-24.986,35.9v.926a8.518,8.518,0,0,0,3.434-.825c9.328-4.355,14.907-17.676,17.122-26.966C602.885,199.577,603.635,195.829,606.462,193.9Z" transform="translate(-581.53 -192.039)"/>
        <path id="Path_134" data-name="Path 134" d="M654.585,193.364a37.95,37.95,0,0,0-9.514-2.934,12.277,12.277,0,0,1,6.831,4.291,17.492,17.492,0,0,1,2.092,3.727,38.37,38.37,0,0,0-32.184.666c2.4,5.265,9.849,8.135,14.822,10.057q8.167,3.152,16.5,5.766l-4.919-3.993,11.111,1.768a19.248,19.248,0,0,0-.777-6.549c2.13,1.714,4.951,2.289,7.262,3.727,4.328,2.731,6.133,7.986,8.492,12.538a8.308,8.308,0,0,0,2.481,3.194,38.285,38.285,0,0,0-22.2-32.258Z" transform="translate(-600.365 -190.43)"/>
      </g>
      <path id="Path_135" data-name="Path 135" d="M606.462,192.272l.053-.032a38.235,38.235,0,0,0-24.986,35.9v.926a8.518,8.518,0,0,0,3.434-.825c9.328-4.355,14.907-17.676,17.122-26.966C602.885,197.969,603.635,194.2,606.462,192.272Z" transform="translate(-351.376 -119.972)" fill="#403f3d"/>
      <path id="Path_136" data-name="Path 136" d="M654.585,191.744a37.95,37.95,0,0,0-9.514-2.934A12.277,12.277,0,0,1,651.9,193.1a17.492,17.492,0,0,1,2.092,3.727,38.37,38.37,0,0,0-32.184.665c2.4,5.265,9.849,8.135,14.822,10.057q8.167,3.152,16.5,5.766l-4.919-3.993,11.111,1.768a19.248,19.248,0,0,0-.777-6.549c2.13,1.714,4.951,2.289,7.262,3.727,4.328,2.731,6.133,7.986,8.492,12.538A8.308,8.308,0,0,0,676.786,224a38.285,38.285,0,0,0-22.2-32.258Z" transform="translate(-370.211 -118.368)" fill="#403f3d"/>
      <path id="Path_137" data-name="Path 137" d="M573.33,215.836s39.4-48.981,84.977,0l-3.94-10.973s-21.387-31.231-36.576-24.49-30.107,11.537-30.107,11.537Z" transform="translate(-347.541 -113.977)" opacity="0.1"/>
      <path id="Path_138" data-name="Path 138" d="M573.33,214.206s39.4-48.981,84.977,0l-3.94-10.973S632.98,172,617.791,178.743s-30.107,11.537-30.107,11.537Z" transform="translate(-347.541 -113.215)" fill="#e14b5a"/>
      <path id="Path_139" data-name="Path 139" d="M506.373,444.38s-8.439,22.51,3.375,42.768-10.408,28.7-10.408,28.7" transform="translate(-312.944 -237.872)" opacity="0.1"/>
      <path id="Path_140" data-name="Path 140" d="M765.934,406.33S780.565,424.9,771,441.5s-9,56.557-9,56.557" transform="translate(-435.758 -220.08)" opacity="0.1"/>
      <path id="Path_141" data-name="Path 141" d="M326.962,553.3H489.594A13.507,13.507,0,0,1,503.1,566.807H313.46A13.507,13.507,0,0,1,326.962,553.3Z" transform="translate(-146.475 -258.722)" fill="#403f3d"/>
      <path id="Path_142" data-name="Path 142" d="M351.664,378.89H481.208a20.764,20.764,0,0,1,20.764,20.764v75.186H330.9V399.654A20.764,20.764,0,0,1,351.664,378.89Z" transform="translate(-154.63 -177.168)" fill="#1f1e1c"/>
      <circle id="Ellipse_25" data-name="Ellipse 25" cx="10.132" cy="10.132" r="10.132" transform="translate(251.53 243.787)" fill="#fff"/>
      <g id="DominoKit" transform="translate(212.832 264.677)">
        <rect id="BG" width="33.941" height="33.941" rx="4" transform="translate(49.359 -34.697) rotate(45)" fill="#fdd55c"/>
        <g id="K" transform="translate(48.896 -22.762) rotate(45)">
          <g id="_" data-name="\" transform="translate(6.78 5.094)">
            <g id="_5-1" data-name="5-1">
              <g id="Bottom">
                <path id="BG-2" data-name="BG" d="M2.548,0H5.1a0,0,0,0,1,0,0V5.1a0,0,0,0,1,0,0H2.548A2.548,2.548,0,0,1,0,2.548v0A2.548,2.548,0,0,1,2.548,0Z" fill="#4fb6ac"/>
                <g id="_1" data-name="1" transform="translate(2.123 2.123)">
                  <circle id="_1-2" data-name="1" cx="0.425" cy="0.425" r="0.425" fill="#fff"/>
                </g>
              </g>
              <g id="Top" transform="translate(5.095)">
                <rect id="BG-3" data-name="BG" width="5.095" height="5.095" fill="#1f1e1c"/>
                <g id="_5" data-name="5" transform="translate(0.849 0.849)">
                  <circle id="_5-2" data-name="5" cx="0.425" cy="0.425" r="0.425" transform="translate(0 2.548)" fill="#fff"/>
                  <circle id="_4" data-name="4" cx="0.425" cy="0.425" r="0.425" fill="#fff"/>
                  <circle id="_3" data-name="3" cx="0.425" cy="0.425" r="0.425" transform="translate(1.274 1.274)" fill="#fff"/>
                  <circle id="_2" data-name="2" cx="0.425" cy="0.425" r="0.425" transform="translate(2.548 2.548)" fill="#fff"/>
                  <circle id="_1-3" data-name="1" cx="0.425" cy="0.425" r="0.425" transform="translate(2.548)" fill="#fff"/>
                </g>
              </g>
            </g>
          </g>
          <g id="_2-2" data-name="/" transform="translate(6.775 0)">
            <g id="_4-1" data-name="4-1" transform="translate(0 0)">
              <g id="Bottom-2" data-name="Bottom" transform="translate(0 5.095)">
                <rect id="BG-4" data-name="BG" width="5.095" height="5.095" fill="#14c397"/>
                <g id="_1-4" data-name="1" transform="translate(2.123 2.123)">
                  <circle id="_1-5" data-name="1" cx="0.425" cy="0.425" r="0.425" fill="#fff"/>
                </g>
              </g>
              <g id="Top-2" data-name="Top">
                <rect id="BG-5" data-name="BG" width="5.095" height="5.095" fill="#1f1e1c"/>
                <g id="_4-2" data-name="4" transform="translate(0.849 0.849)">
                  <circle id="_4-3" data-name="4" cx="0.425" cy="0.425" r="0.425" transform="translate(2.548 2.548)" fill="#fff"/>
                  <circle id="_3-2" data-name="3" cx="0.425" cy="0.425" r="0.425" transform="translate(0 2.548)" fill="#fff"/>
                  <circle id="_2-3" data-name="2" cx="0.425" cy="0.425" r="0.425" transform="translate(2.548)" fill="#fff"/>
                  <circle id="_1-6" data-name="1" cx="0.425" cy="0.425" r="0.425" fill="#fff"/>
                </g>
              </g>
            </g>
          </g>
          <path id="Polygon_1" data-name="Polygon 1" d="M3.87,0l3.87,3.817H0Z" transform="translate(0 10.61) rotate(-90)" fill="#1f1e1c"/>
          <path id="Polygon_2" data-name="Polygon 2" d="M3.87,0l3.87,3.817H0Z" transform="translate(14.117 16.971) rotate(180)" fill="#1f1e1c"/>
        </g>
      </g>
      <path id="Path_143" data-name="Path 143" d="M577.56,189.41s38.716-38.695,80.472-.708" transform="translate(-349.519 -110.508)" fill="none" stroke="#000" stroke-miterlimit="10" stroke-width="1" opacity="0.1"/>
      <rect id="Rectangle_30" data-name="Rectangle 30" width="412.457" height="110.74" transform="translate(39.645 308.26)" fill="#d6d6e3"/>
      <rect id="Rectangle_31" data-name="Rectangle 31" width="412.457" height="14.375" transform="translate(39.645 315.714)" opacity="0.1"/>
      <rect id="Rectangle_32" data-name="Rectangle 32" width="467.784" height="14.375" transform="translate(11.976 306.663)" fill="#d6d6e3"/>
    </g>
    <g transform="matrix(1, 0, 0, 1, 35.79, -112)" filter="url(#ic_thinking_bubble)">
      <path id="ic_thinking_bubble-2" data-name="ic_thinking_bubble" d="M102.7,2A47.574,47.574,0,0,1,144,26.057,52.158,52.158,0,0,1,161,23.2a52.964,52.964,0,0,1,17.991,102.791,52.781,52.781,0,0,1-74.345,28.9A46.694,46.694,0,0,1,81.5,161a47.739,47.739,0,0,1-40.909-23.291A52.8,52.8,0,0,1,2,86.8C2,56.632,26.979,31.879,57.857,33.9A47.371,47.371,0,0,1,102.7,2Zm53,169.6a15.9,15.9,0,1,1-15.9,15.9A15.9,15.9,0,0,1,155.7,171.6Zm37.1,21.2a10.6,10.6,0,1,1-10.6,10.6A10.6,10.6,0,0,1,192.8,192.8Z" transform="translate(7.21 4)" fill="#fff"/>
    </g>
    <g id="ic_build" transform="translate(93 -57)">
      <path id="IDE" d="M1785.1,62a5.066,5.066,0,0,1-5.1-5.029V10.03A5.065,5.065,0,0,1,1785.1,5h101.8a5.065,5.065,0,0,1,5.1,5.029V56.971A5.066,5.066,0,0,1,1886.9,62Zm-1.7-5.029a1.689,1.689,0,0,0,1.7,1.676h101.8a1.689,1.689,0,0,0,1.7-1.676V15.059H1783.4Z" transform="translate(-1778 -1)" fill="#403f3d"/>
      <rect id="Cursor" width="8" height="2" transform="translate(93 42)" fill="#575988"/>
      <path id="Line" d="M7.142,26l6.453-6.72a1.71,1.71,0,0,0,0-2.3L7.142,10l-2.1,2.3L10.383,18,5.161,23.568Z" transform="translate(6.959 18)" fill="#575988"/>
      <ellipse id="Ellipse_90" data-name="Ellipse 90" cx="2" cy="2.002" rx="2" ry="2.002" transform="translate(6 7)" fill="#e14b5a"/>
      <ellipse id="Ellipse_91" data-name="Ellipse 91" cx="2" cy="2.002" rx="2" ry="2.002" transform="translate(14 7)" fill="#fdd55c"/>
      <ellipse id="Ellipse_92" data-name="Ellipse 92" cx="2" cy="2.002" rx="2" ry="2.002" transform="translate(22 7)" fill="#14c397"/>
      <path id="DominoKit-2" data-name="DominoKit" d="M10.115-5.061a5.474,5.474,0,0,1-.371,2.044A4.7,4.7,0,0,1,8.7-1.414,4.666,4.666,0,0,1,7.084-.371,5.7,5.7,0,0,1,4.984,0H1.127V-10.122H4.984a5.655,5.655,0,0,1,2.1.374A4.734,4.734,0,0,1,8.7-8.7a4.658,4.658,0,0,1,1.043,1.6A5.474,5.474,0,0,1,10.115-5.061Zm-1.932,0a4.713,4.713,0,0,0-.22-1.495,3.1,3.1,0,0,0-.637-1.12,2.779,2.779,0,0,0-1.008-.7,3.456,3.456,0,0,0-1.333-.245H3.017V-1.5H4.984a3.456,3.456,0,0,0,1.333-.245,2.779,2.779,0,0,0,1.008-.7,3.1,3.1,0,0,0,.637-1.12A4.713,4.713,0,0,0,8.183-5.061Zm6.4-2.233a3.916,3.916,0,0,1,1.453.259,3.182,3.182,0,0,1,1.12.735,3.228,3.228,0,0,1,.718,1.162,4.42,4.42,0,0,1,.252,1.533,4.442,4.442,0,0,1-.252,1.54A3.3,3.3,0,0,1,17.16-.9a3.136,3.136,0,0,1-1.12.742A3.916,3.916,0,0,1,14.588.1a3.963,3.963,0,0,1-1.463-.259A3.13,3.13,0,0,1,12-.9a3.34,3.34,0,0,1-.721-1.169,4.387,4.387,0,0,1-.255-1.54,4.365,4.365,0,0,1,.255-1.533A3.268,3.268,0,0,1,12-6.3a3.176,3.176,0,0,1,1.124-.735A3.963,3.963,0,0,1,14.588-7.294Zm0,6.069a1.521,1.521,0,0,0,1.326-.6,3.018,3.018,0,0,0,.431-1.764,3.053,3.053,0,0,0-.431-1.771,1.514,1.514,0,0,0-1.326-.609,1.544,1.544,0,0,0-1.347.612A3.018,3.018,0,0,0,12.8-3.591a2.984,2.984,0,0,0,.438,1.761A1.551,1.551,0,0,0,14.588-1.225ZM19.453,0V-7.182H20.51a.425.425,0,0,1,.441.315l.112.532a4.089,4.089,0,0,1,.4-.385,2.541,2.541,0,0,1,.441-.3,2.388,2.388,0,0,1,.5-.2A2.244,2.244,0,0,1,23-7.294a1.677,1.677,0,0,1,1.117.368,2.213,2.213,0,0,1,.654.976,2.192,2.192,0,0,1,.42-.612,2.3,2.3,0,0,1,.553-.417,2.545,2.545,0,0,1,.641-.238,3.076,3.076,0,0,1,.682-.077,2.868,2.868,0,0,1,1.057.182,2.027,2.027,0,0,1,.777.532,2.345,2.345,0,0,1,.479.854,3.72,3.72,0,0,1,.165,1.155V0H27.811V-4.571a1.536,1.536,0,0,0-.3-1.032,1.105,1.105,0,0,0-.882-.347,1.317,1.317,0,0,0-.493.091,1.176,1.176,0,0,0-.4.263,1.2,1.2,0,0,0-.269.431,1.674,1.674,0,0,0-.1.595V0H23.632V-4.571a1.564,1.564,0,0,0-.29-1.05,1.075,1.075,0,0,0-.851-.329,1.4,1.4,0,0,0-.7.186,2.346,2.346,0,0,0-.605.507V0ZM32.97-7.182V0H31.234V-7.182Zm.238-2.093a.985.985,0,0,1-.091.42,1.154,1.154,0,0,1-.242.343,1.154,1.154,0,0,1-.354.234,1.085,1.085,0,0,1-.434.088,1.043,1.043,0,0,1-.424-.088,1.122,1.122,0,0,1-.347-.234,1.134,1.134,0,0,1-.234-.343A1.019,1.019,0,0,1,31-9.275a1.085,1.085,0,0,1,.087-.434,1.111,1.111,0,0,1,.234-.35,1.122,1.122,0,0,1,.347-.234,1.043,1.043,0,0,1,.424-.088,1.085,1.085,0,0,1,.434.088,1.154,1.154,0,0,1,.354.234,1.129,1.129,0,0,1,.242.35A1.049,1.049,0,0,1,33.208-9.275ZM36.351-6.3a4.677,4.677,0,0,1,.458-.4,2.9,2.9,0,0,1,.511-.315,2.864,2.864,0,0,1,.578-.2,2.893,2.893,0,0,1,.672-.074,2.575,2.575,0,0,1,1.043.2,2.061,2.061,0,0,1,.76.56,2.462,2.462,0,0,1,.462.861,3.659,3.659,0,0,1,.157,1.1V0H39.263V-4.571a1.546,1.546,0,0,0-.3-1.018,1.127,1.127,0,0,0-.917-.361,1.8,1.8,0,0,0-.84.2,3.01,3.01,0,0,0-.742.553V0H34.734V-7.182h1.057a.425.425,0,0,1,.441.315Zm9.457-.994a3.916,3.916,0,0,1,1.453.259,3.182,3.182,0,0,1,1.12.735A3.228,3.228,0,0,1,49.1-5.138a4.42,4.42,0,0,1,.252,1.533,4.442,4.442,0,0,1-.252,1.54A3.3,3.3,0,0,1,48.381-.9a3.136,3.136,0,0,1-1.12.742A3.916,3.916,0,0,1,45.808.1a3.963,3.963,0,0,1-1.463-.259A3.13,3.13,0,0,1,43.222-.9,3.34,3.34,0,0,1,42.5-2.065a4.387,4.387,0,0,1-.255-1.54A4.365,4.365,0,0,1,42.5-5.138,3.268,3.268,0,0,1,43.222-6.3a3.176,3.176,0,0,1,1.124-.735A3.963,3.963,0,0,1,45.808-7.294Zm0,6.069a1.521,1.521,0,0,0,1.327-.6,3.018,3.018,0,0,0,.431-1.764,3.053,3.053,0,0,0-.431-1.771,1.514,1.514,0,0,0-1.327-.609,1.544,1.544,0,0,0-1.347.612,3.018,3.018,0,0,0-.437,1.767,2.984,2.984,0,0,0,.438,1.761A1.551,1.551,0,0,0,45.808-1.225Zm6.8-4.655h.441a1.145,1.145,0,0,0,.441-.074.746.746,0,0,0,.3-.235l2.793-3.535a1.014,1.014,0,0,1,.368-.311,1.178,1.178,0,0,1,.486-.087h1.624L55.657-5.915a1.893,1.893,0,0,1-.623.546,1.433,1.433,0,0,1,.417.234,1.854,1.854,0,0,1,.354.4L59.318,0H57.659a1.034,1.034,0,0,1-.5-.095.784.784,0,0,1-.277-.276L54.019-4.109a.75.75,0,0,0-.308-.266,1.3,1.3,0,0,0-.5-.077h-.6V0H50.729V-10.122h1.883Zm9.233-1.3V0H60.109V-7.182Zm.238-2.093a.985.985,0,0,1-.091.42,1.154,1.154,0,0,1-.242.343,1.154,1.154,0,0,1-.353.234,1.085,1.085,0,0,1-.434.088,1.043,1.043,0,0,1-.424-.088,1.122,1.122,0,0,1-.347-.234,1.134,1.134,0,0,1-.235-.343,1.019,1.019,0,0,1-.087-.42,1.085,1.085,0,0,1,.087-.434,1.111,1.111,0,0,1,.235-.35,1.122,1.122,0,0,1,.347-.234,1.043,1.043,0,0,1,.424-.088,1.085,1.085,0,0,1,.434.088,1.154,1.154,0,0,1,.353.234,1.129,1.129,0,0,1,.242.35A1.049,1.049,0,0,1,62.083-9.275ZM66,.112a1.887,1.887,0,0,1-1.438-.529,2.037,2.037,0,0,1-.5-1.46V-5.887h-.735a.337.337,0,0,1-.238-.091.355.355,0,0,1-.1-.273v-.686l1.155-.189.364-1.96a.384.384,0,0,1,.133-.217A.4.4,0,0,1,64.9-9.38h.9v2.261h1.918v1.232H65.793V-2a.773.773,0,0,0,.165.525.567.567,0,0,0,.451.189.814.814,0,0,0,.269-.038,1.483,1.483,0,0,0,.189-.081q.08-.042.144-.081a.24.24,0,0,1,.126-.038.2.2,0,0,1,.126.038.584.584,0,0,1,.105.115l.518.84a2.617,2.617,0,0,1-.868.476A3.231,3.231,0,0,1,66,.112Z" transform="translate(24 41)" fill="#575988"/>
    </g>
  </g>
</svg>
