<svg xmlns="http://www.w3.org/2000/svg" viewBox="3 3 16 16">
    <path id="ic_header_inkedin"
          d="M 11 3 C 6.582000255584717 3 3 6.582000255584717 3 11 C 3 15.41799926757812 6.582000255584717 19 11 19 C 15.41799926757812 19 19 15.41799926757812 19 11 C 19 6.582000255584717 15.41800117492676 3 11 3 Z M 7.997333526611328 6.60200023651123 C 8.558667182922363 6.60200023651123 8.932666778564453 6.97599983215332 8.932666778564453 7.474666595458984 C 8.932666778564453 7.973333358764648 8.558667182922363 8.347333908081055 7.935333251953125 8.347333908081055 C 7.374000072479248 8.348000526428223 7 7.973333358764648 7 7.474666595458984 C 7 6.97599983215332 7.374000072479248 6.60200023651123 7.997333526611328 6.60200023651123 Z M 9 14.33333396911621 L 7 14.33333396911621 L 7 9 L 9 9 L 9 14.33333396911621 Z M 15.66666698455811 14.33333396911621 L 13.78400039672852 14.33333396911621 L 13.78400039672852 11.41866683959961 C 13.78400039672852 10.61266708374023 13.28200054168701 10.42666721343994 13.09400081634521 10.42666721343994 C 12.90600109100342 10.42666721343994 12.27799987792969 10.55066680908203 12.27799987792969 11.41866683959961 C 12.27799987792969 11.54266738891602 12.27799987792969 14.33333396911621 12.27799987792969 14.33333396911621 L 10.33333396911621 14.33333396911621 L 10.33333396911621 9 L 12.27866649627686 9 L 12.27866649627686 9.744000434875488 C 12.52933406829834 9.310000419616699 13.03133392333984 9 13.97266674041748 9 C 14.91400051116943 9 15.66666698455811 9.744000434875488 15.66666698455811 11.41866683959961 L 15.66666698455811 14.33333396911621 Z">
    </path>
</svg>