<svg xmlns="http://www.w3.org/2000/svg" viewBox="3 3 16 16">
    <path
            id="ic_header_twitter"
            d="M 11 3 C 6.5820081 3 3 6.5820081 3 11 C 3 15.417989 6.5820081 19 11 19 C 15.417989 19 19 15.417989 19 11 C 19 6.5820081 15.417991 3 11 3 z M 5.3222656 5.6210938 L 8.9902344 5.6210938 L 11.521484 8.9707031 L 14.451172 5.6210938 L 16.228516 5.6210938 L 12.345703 10.060547 L 16.914062 16.101562 L 13.337891 16.101562 L 10.535156 12.4375 L 7.3300781 16.101562 L 5.5507812 16.101562 L 9.7050781 11.353516 L 5.3222656 5.6210938 z M 7.3964844 6.6308594 L 13.828125 15.037109 L 14.8125 15.037109 L 8.4550781 6.6308594 L 7.3964844 6.6308594 z " />
</svg>