<svg xmlns="http://www.w3.org/2000/svg" viewBox="2 2 16 16">
    <path id="ic_header_facebook"
          d="M 9.999999046325684 2 C 5.581600189208984 2 2 5.585006237030029 2 10.00760841369629 C 2 14.32771110534668 5.420000076293945 17.83904647827148 9.696800231933594 18 L 9.696800231933594 12.44111919403076 L 7.822399616241455 12.44111919403076 L 7.822399616241455 10.2590446472168 L 9.696800231933594 10.2590446472168 L 9.696800231933594 8.653519630432129 C 9.696800231933594 6.79255199432373 10.83359813690186 5.777987957000732 12.49279975891113 5.777987957000732 C 13.05199909210205 5.776386737823486 13.61040019989014 5.805213928222656 14.1663990020752 5.862068176269531 L 14.1663990020752 7.80791711807251 L 13.02399921417236 7.80791711807251 C 12.1200008392334 7.80791711807251 11.94399929046631 8.235523223876953 11.94399929046631 8.866522789001465 L 11.94399929046631 10.25584125518799 L 14.10399913787842 10.25584125518799 L 13.82320022583008 12.43791484832764 L 11.93120098114014 12.43791484832764 L 11.93120098114014 17.77018165588379 C 15.41439819335938 16.90456008911133 18 13.76237392425537 18 10.00760841369629 C 18 5.585006237030029 14.41840076446533 2 9.999999046325684 2 Z">
    </path>
</svg>