<svg xmlns="http://www.w3.org/2000/svg" xmlns:xlink="http://www.w3.org/1999/xlink" width="150.91" height="35.891"
     viewBox="0 0 150.91 35.891">
    <defs>
        <style>.a,.e{fill:#1f1e1c;}.a{font-size:24px;font-family:Lato-Regular, Lato;}.b{font-family:Lato-Bold,
            Lato;font-weight:700;}.c{fill:#4fb6ac;}.d{fill:#fff;}.f,.h{opacity:0.32;}.f{fill:url(#a);}.g{fill:#14c397;}.h{fill:url(#b);}
        </style>
        <linearGradient id="a" x1="1" y1="0.513" x2="-0.065" y2="0.506" gradientUnits="objectBoundingBox">
            <stop offset="0" stop-color="#ffcd39"/>
            <stop offset="1" stop-color="#656565"/>
        </linearGradient>
        <linearGradient id="b" x1="0.5" x2="0.5" y2="1" gradientUnits="objectBoundingBox">
            <stop offset="0" stop-color="#ffcd39"/>
            <stop offset="1" stop-color="#1f1e1c"/>
        </linearGradient>
    </defs>
    <g transform="translate(8785.91 3172.308)">
        <text class="a" transform="translate(-8693 -3145)">
            <tspan x="-57.834" y="0">Domino</tspan>
            <tspan class="b" y="0">Kit</tspan>
        </text>
        <g transform="translate(-8815.349 -3331.024) rotate(45)">
            <g transform="translate(152.202 88.453)">
                <path class="c" d="M4,0H9.165a0,0,0,0,1,0,0V9.165a0,0,0,0,1,0,0H4a4,4,0,0,1-4-4V4A4,4,0,0,1,4,0Z"/>
                <g transform="translate(3.819 3.819)">
                    <circle class="d" cx="0.764" cy="0.764" r="0.764"/>
                </g>
                <g transform="translate(9.165)">
                    <rect class="e" width="9.165" height="9.165"/>
                    <g transform="translate(1.528 1.528)">
                        <circle class="d" cx="0.764" cy="0.764" r="0.764" transform="translate(0 4.583)"/>
                        <circle class="d" cx="0.764" cy="0.764" r="0.764"/>
                        <circle class="d" cx="0.764" cy="0.764" r="0.764" transform="translate(2.291 2.291)"/>
                        <circle class="d" cx="0.764" cy="0.764" r="0.764" transform="translate(4.583 4.583)"/>
                        <circle class="d" cx="0.764" cy="0.764" r="0.764" transform="translate(4.583)"/>
                    </g>
                    <rect class="f" width="1.534" height="9.165" transform="translate(9.106 0)"/>
                </g>
            </g>
            <g transform="translate(152.194 77.816)">
                <g transform="translate(0 0)">
                    <g transform="translate(0 10.64)">
                        <rect class="g" width="9.165" height="9.165"/>
                        <g transform="translate(3.819 3.819)">
                            <circle class="d" cx="0.764" cy="0.764" r="0.764"/>
                        </g>
                    </g>
                    <rect class="e" width="9.165" height="9.165" transform="translate(0 1.475)"/>
                    <g transform="translate(1.528 3.002)">
                        <circle class="d" cx="0.764" cy="0.764" r="0.764" transform="translate(4.583 4.583)"/>
                        <circle class="d" cx="0.764" cy="0.764" r="0.764" transform="translate(0 4.583)"/>
                        <circle class="d" cx="0.764" cy="0.764" r="0.764" transform="translate(4.583)"/>
                        <circle class="d" cx="0.764" cy="0.764" r="0.764"/>
                    </g>
                    <rect class="h" width="9.165" height="1.534" transform="translate(0)"/>
                </g>
            </g>
            <path class="e" d="M6.962,0l6.962,6.866H0Z" transform="translate(140.007 98.374) rotate(-90)"/>
            <path class="e" d="M6.962,0l6.962,6.866H0Z" transform="translate(165.4 109.816) rotate(180)"/>
        </g>
    </g>
</svg>