<svg xmlns="http://www.w3.org/2000/svg" width="17" height="24" viewBox="0 0 17 24">
    <defs>
        <style>.a{fill:#403f3d;}</style>
    </defs>
    <path class="a"
          d="M9075.061,857.559h0a1.579,1.579,0,0,0-.393,1.005c0,1.6,2.539,3.254,2.829,3.437.028-.015,2.837-1.751,2.837-3.437a1.583,1.583,0,0,0-.395-1.006h-.8a.483.483,0,0,0,.026.073.325.325,0,0,1,.034.128c0,1.18-1.634,1.788-1.7,1.813-.07-.025-1.7-.633-1.7-1.813a.325.325,0,0,1,.034-.128.478.478,0,0,0,.026-.073Zm6.106-2.781v0l3.114,3.669c.017-.028,1.719-3.261,1.719-4.851,0-1.258-1.787-2.805-2.854-3.616,0-.022,0-.044,0-.066s0-.042,0-.062c.006-.082.012-.189.012-.3a14.557,14.557,0,0,0-2.833-8.779A12.171,12.171,0,0,0,9077.5,838a11.845,11.845,0,0,0-2.833,2.777,14.436,14.436,0,0,0-2.833,8.779c0,.084,0,.175.012.3,0,.021,0,.043.007.064s0,.043,0,.064c-1.066.812-2.855,2.358-2.855,3.616,0,1.526,1.537,4.511,1.712,4.846l3.123-3.666.833,1.892h5.666l.831-1.89Zm-3.666-7a1.781,1.781,0,1,1,1.89-1.776A1.837,1.837,0,0,1,9077.5,847.778Z"
          transform="translate(-9069 -838.001)"/>
</svg>