<svg xmlns="http://www.w3.org/2000/svg">
    <rect id="yellow-rect" rx="8" ry="8" x="0" y="0" width="64" height="64"
          fill="rgba(255,255,255,1)"
          stroke="rgba(253,213,92,1)"
          stroke-width="4px"
          stroke-linejoin="round"
          stroke-miterlimit="4"
          style="transform:translate(0px,0px) matrix(1,0,0,1,40,0) rotate(40deg)"
    >
    </rect>
    <path id="center-shape-a" d="M 20.64901542663574 2.018624305725098 C 20.11111450195312 2.104990243911743 19.6416072845459 2.465317726135254 19.43302917480469 2.993885040283203 L 13.1123514175415 18.79557800292969 C 12.91641235351562 19.28226852416992 12.97892475128174 19.83784294128418 13.27284049987793 20.27081489562988 C 13.56674957275391 20.70377922058105 14.05679988861084 20.96213531494141 14.5814151763916 20.96213531494141 L 19.32192420959473 20.96213531494141 L 19.32192420959473 32.02331924438477 C 19.32192420959473 32.78179931640625 19.85696029663086 33.4304084777832 20.59963989257812 33.5726203918457 C 20.70393180847168 33.59158706665039 20.80412101745605 33.60348510742188 20.90209197998047 33.60348510742188 C 21.53732681274414 33.60348510742188 22.1309700012207 33.21649932861328 22.37115478515625 32.60971069335938 L 28.69183158874512 16.80801582336426 C 28.88461112976074 16.32133102416992 28.82525825500488 15.77192306518555 28.53134536743164 15.33895874023438 C 28.23743629455566 14.90599346160889 27.74738502502441 14.6414623260498 27.2227668762207 14.6414623260498 L 22.48226165771484 14.6414623260498 L 22.48226165771484 3.580275297164917 C 22.48226165771484 2.821793794631958 21.94722747802734 2.173184156417847 21.20454788208008 2.030969858169556 C 21.01571083068848 1.99462628364563 20.82831382751465 1.989835619926453 20.64901542663574 2.018624305725098 Z"
          fill="rgba(20,195,151,1)"
          stroke="rgba(64,63,61,1)"
          stroke-width="2px"
          stroke-miterlimit="4"
          style="transform:translate(22px,26px)"
    >
    </path>
</svg>