<svg xmlns="http://www.w3.org/2000/svg" viewBox="3 3 16 16">
    <path id="ic_header_twitter"
          d="M 11.00000095367432 3 C 6.582000255584717 3 3 6.582000255584717 3 11.00000095367432 C 3 15.41799831390381 6.582000255584717 19 11.00000095367432 19 C 15.41799831390381 19 19 15.41799831390381 19 11.00000095367432 C 19 6.582000255584717 15.41800022125244 3 11.00000095367432 3 Z M 15.30933284759521 9.356667518615723 C 15.31333065032959 9.445334434509277 15.31533432006836 9.533334732055664 15.31533432006836 9.621335029602051 C 15.31533432006836 12.33333396911621 13.25200080871582 15.45866203308105 9.478001594543457 15.45866203308105 C 8.318668365478516 15.45866203308105 7.240668296813965 15.11933135986328 6.333334445953369 14.53666591644287 C 6.494001388549805 14.55600070953369 6.657334804534912 14.56466770172119 6.823334693908691 14.56466770172119 C 7.785336494445801 14.56466770172119 8.669336318969727 14.23733520507812 9.370668411254883 13.68599891662598 C 8.472668647766113 13.66933250427246 7.714668273925781 13.07599830627441 7.454001903533936 12.26133251190186 C 7.57933521270752 12.28533267974854 7.708002090454102 12.29800033569336 7.840002536773682 12.29800033569336 C 8.027336120605469 12.29800033569336 8.209335327148438 12.27266693115234 8.380669593811035 12.22599983215332 C 7.442000865936279 12.03800010681152 6.734668731689453 11.20866775512695 6.734668731689453 10.21466636657715 C 6.734668731689453 10.20600032806396 6.734668731689453 10.19733333587646 6.734668731689453 10.18866729736328 C 7.011334896087646 10.34266757965088 7.327335357666016 10.43466663360596 7.66400146484375 10.44533348083496 C 7.114002704620361 10.07800197601318 6.751334667205811 9.449334144592285 6.751334667205811 8.738000869750977 C 6.751334667205811 8.361333847045898 6.852002620697021 8.0086669921875 7.028668880462646 7.706667423248291 C 8.040669441223145 8.947999954223633 9.552670478820801 9.765335083007812 11.25733757019043 9.850666046142578 C 11.22267150878906 9.700668334960938 11.20466995239258 9.544000625610352 11.20466995239258 9.383333206176758 C 11.20466995239258 8.250667572021484 12.1233377456665 7.331333160400391 13.25600242614746 7.331333160400391 C 13.84600162506104 7.331333160400391 14.37933731079102 7.580666542053223 14.75333404541016 7.979333877563477 C 15.22066879272461 7.886667251586914 15.66000175476074 7.716666698455811 16.05666923522949 7.481334686279297 C 15.90333271026611 7.960667133331299 15.57800102233887 8.36199951171875 15.15399932861328 8.616667747497559 C 15.56866931915283 8.567334175109863 15.96399974822998 8.457333564758301 16.33266830444336 8.294000625610352 C 16.05866432189941 8.706001281738281 15.71133232116699 9.066667556762695 15.30933284759521 9.356667518615723 Z">
    </path>
</svg>