<?xml version="1.0" encoding="UTF-8" standalone="no"?>
<svg
   viewBox="3 3 16 16"
   version="1.1"
   id="svg1738"
   sodipodi:docname="twitter.svg"
   inkscape:version="1.2.2 (732a01da63, 2022-12-09, custom)"
   xmlns:inkscape="http://www.inkscape.org/namespaces/inkscape"
   xmlns:sodipodi="http://sodipodi.sourceforge.net/DTD/sodipodi-0.dtd"
   xmlns="http://www.w3.org/2000/svg"
   xmlns:svg="http://www.w3.org/2000/svg">
  <defs
     id="defs1742" />
  <sodipodi:namedview
     id="namedview1740"
     pagecolor="#ffffff"
     bordercolor="#000000"
     borderopacity="0.25"
     inkscape:showpageshadow="2"
     inkscape:pageopacity="0.0"
     inkscape:pagecheckerboard="0"
     inkscape:deskcolor="#d1d1d1"
     showgrid="false"
     inkscape:zoom="64.1875"
     inkscape:cx="8.0155794"
     inkscape:cy="8.0077897"
     inkscape:window-width="3432"
     inkscape:window-height="1323"
     inkscape:window-x="2564"
     inkscape:window-y="28"
     inkscape:window-maximized="0"
     inkscape:current-layer="svg1738" />
  <path
     id="ic_header_twitter"
     d="M 11 3 C 6.5820081 3 3 6.5820081 3 11 C 3 15.417989 6.5820081 19 11 19 C 15.417989 19 19 15.417989 19 11 C 19 6.5820081 15.417991 3 11 3 z M 5.3222656 5.6210938 L 8.9902344 5.6210938 L 11.521484 8.9707031 L 14.451172 5.6210938 L 16.228516 5.6210938 L 12.345703 10.060547 L 16.914062 16.101562 L 13.337891 16.101562 L 10.535156 12.4375 L 7.3300781 16.101562 L 5.5507812 16.101562 L 9.7050781 11.353516 L 5.3222656 5.6210938 z M 7.3964844 6.6308594 L 13.828125 15.037109 L 14.8125 15.037109 L 8.4550781 6.6308594 L 7.3964844 6.6308594 z " />
</svg>
